<?xml version="1.0" encoding="UTF-8"?>
<!-- Created with Inkscape (http://www.inkscape.org/) -->
<svg width="365.16" height="116.37" version="1.1" viewBox="0 0 96.615 30.79" xmlns="http://www.w3.org/2000/svg" xmlns:cc="http://creativecommons.org/ns#" xmlns:dc="http://purl.org/dc/elements/1.1/" xmlns:rdf="http://www.w3.org/1999/02/22-rdf-syntax-ns#">
 <metadata>
  <rdf:RDF>
   <cc:Work rdf:about="">
    <dc:format>image/svg+xml</dc:format>
    <dc:type rdf:resource="http://purl.org/dc/dcmitype/StillImage"/>
    <dc:title/>
   </cc:Work>
  </rdf:RDF>
 </metadata>
 <g transform="translate(-.65884 -265.62)">
  <g transform="matrix(.4795 0 0 .4795 -14.802 249.04)" fill-rule="evenodd">
   <g fill="#060a04">
    <path d="m110.34 89.368v-16.177h2.1463v14.279h7.9528v1.8978zm20.066-1.4687c-0.738 0.6289-1.4497 1.0696-2.1311 1.3293-0.6817 0.2598-1.412 0.3879-2.1954 0.3879-1.2879 0-2.2782-0.3126-2.9709-0.9415-0.693-0.6251-1.0393-1.4269-1.0393-2.4021 0-0.5726 0.1316-1.096 0.3917-1.5704 0.2636-0.4745 0.6061-0.851 1.0277-1.1372 0.4255-0.2861 0.9-0.5047 1.431-0.6514 0.3918-0.1018 0.9827-0.1996 1.7697-0.2975 1.6042-0.1883 2.7903-0.4181 3.5473-0.6814 7e-3 -0.2713 0.0113-0.4445 0.0113-0.5159 0-0.806-0.1883-1.3744-0.5649-1.7059-0.5082-0.4481-1.2653-0.6702-2.2669-0.6702-0.9376 0-1.6303 0.1658-2.0748 0.4931-0.448 0.3277-0.7757 0.9077-0.9904 1.7436l-1.9428-0.271c0.177-0.8324 0.4667-1.5064 0.8735-2.0185 0.4066-0.5121 0.994-0.9038 1.7623-1.1822 0.7644-0.2749 1.657-0.4142 2.666-0.4142 1.0017 0 1.8186 0.1165 2.4476 0.3537 0.625 0.2372 1.0882 0.5311 1.3821 0.8887 0.2935 0.3579 0.5005 0.8098 0.6212 1.3557 0.064 0.3389 0.0978 0.9489 0.0978 1.8263v2.6358c0 1.8414 0.0415 3.005 0.1243 3.4981 0.0791 0.4934 0.2446 0.964 0.4857 1.4159h-2.0787c-0.1995-0.4181-0.3273-0.9074-0.384-1.4687zm-0.158-4.4054c-0.7229 0.2935-1.8076 0.542-3.2535 0.7454-0.8208 0.1168-1.4008 0.2485-1.7397 0.3956-0.3389 0.1468-0.5987 0.3614-0.7831 0.6399-0.1844 0.2826-0.2787 0.5951-0.2787 0.9414 0 0.5234 0.1995 0.964 0.6025 1.3142s0.9904 0.5273 1.7622 0.5273c0.7645 0 1.4459-0.1658 2.0446-0.5009 0.5951-0.3315 1.0357-0.7869 1.3142-1.3631 0.2147-0.448 0.3202-1.1072 0.3202-1.9769zm6.8945 5.8741h-1.8524v-16.177h1.9882v5.7725c0.8394-1.0468 1.909-1.5701 3.2119-1.5701 0.7191 0 1.4044 0.1429 2.0484 0.4329 0.6438 0.29 1.171 0.7004 1.5891 1.2237 0.4142 0.5273 0.7416 1.1597 0.9753 1.9016 0.2372 0.7381 0.3537 1.5328 0.3537 2.3761 0 2.0033-0.497 3.5547-1.4873 4.6465-0.994 1.096-2.1839 1.6419-3.5735 1.6419-1.3818 0-2.4664-0.5762-3.2534-1.7246zm-0.0226-5.9495c0 1.4008 0.1922 2.4137 0.5723 3.0388 0.6251 1.0204 1.4687 1.5325 2.5344 1.5325 0.8697 0 1.6191-0.3766 2.248-1.1295 0.6325-0.7532 0.9489-1.8752 0.9489-3.3664 0-1.5289-0.3013-2.6548-0.9074-3.3816-0.6064-0.7268-1.3406-1.0918-2.1993-1.0918-0.8697 0-1.6191 0.3763-2.248 1.1295-0.6325 0.7531-0.9489 1.8414-0.9489 3.2685zm10.012 0.0866c0-2.1652 0.6025-3.7694 1.8115-4.8123 1.0052-0.8661 2.2366-1.299 3.6863-1.299 1.6078 0 2.9258 0.5272 3.95 1.5813 1.0204 1.0506 1.5325 2.508 1.5325 4.3643 0 1.5063-0.226 2.6885-0.6779 3.5508-0.4516 0.8623-1.1108 1.5328-1.9769 2.0108-0.8623 0.4783-1.8073 0.7155-2.8277 0.7155-1.6418 0-2.9673-0.5234-3.9802-1.574s-1.5176-2.5643-1.5176-4.5374zm2.0335 0.0039c0 1.4986 0.3277 2.6207 0.9827 3.3626 0.6589 0.7454 1.4835 1.1182 2.4816 1.1182 0.9866 0 1.8074-0.3728 2.4662-1.1221 0.6554-0.7493 0.983-1.8903 0.983-3.4228 0-1.4461-0.3315-2.5418-0.9904-3.2837-0.6589-0.7454-1.4799-1.1182-2.4588-1.1182-0.9981 0-1.8227 0.3689-2.4816 1.1108-0.655 0.7419-0.9827 1.8601-0.9827 3.3552zm11.255 5.859v-11.726h1.7848v1.7961c0.4555-0.8321 0.8774-1.3818 1.2653-1.6454 0.3878-0.2675 0.8133-0.3991 1.2765-0.3991 0.6702 0 1.3516 0.2108 2.0445 0.6286l-0.7078 1.834c-0.4821-0.2713-0.964-0.4068-1.4461-0.4068-0.4329 0-0.8208 0.1319-1.1636 0.3917-0.3425 0.2597-0.5874 0.6212-0.7342 1.0844-0.2221 0.7042-0.3312 1.4761-0.3312 2.3158v6.1265zm15.205-1.4687c-0.738 0.6289-1.4497 1.0696-2.1311 1.3293-0.6817 0.2598-1.4121 0.3879-2.1955 0.3879-1.2878 0-2.2782-0.3126-2.9709-0.9415-0.6929-0.6251-1.0393-1.4269-1.0393-2.4021 0-0.5726 0.1317-1.096 0.3917-1.5704 0.2636-0.4745 0.6061-0.851 1.0278-1.1372 0.4255-0.2861 0.8999-0.5047 1.431-0.6514 0.3917-0.1018 0.9827-0.1996 1.7697-0.2975 1.6042-0.1883 2.7903-0.4181 3.5473-0.6814 7e-3 -0.2713 0.0113-0.4445 0.0113-0.5159 0-0.806-0.1883-1.3744-0.5649-1.7059-0.5083-0.4481-1.2653-0.6702-2.267-0.6702-0.9376 0-1.6302 0.1658-2.0747 0.4931-0.4481 0.3277-0.7757 0.9077-0.9904 1.7436l-1.9429-0.271c0.1771-0.8324 0.4668-1.5064 0.8736-2.0185 0.4065-0.5121 0.994-0.9038 1.7622-1.1822 0.7645-0.2749 1.657-0.4142 2.6661-0.4142 1.0017 0 1.8186 0.1165 2.4475 0.3537 0.6251 0.2372 1.0883 0.5311 1.3821 0.8887 0.2936 0.3579 0.5005 0.8098 0.6212 1.3557 0.0641 0.3389 0.0979 0.9489 0.0979 1.8263v2.6358c0 1.8414 0.0415 3.005 0.1242 3.4981 0.0792 0.4934 0.2447 0.964 0.4857 1.4159h-2.0786c-0.1996-0.4181-0.3274-0.9074-0.384-1.4687zm-0.158-4.4054c-0.723 0.2935-1.8077 0.542-3.2535 0.7454-0.8208 0.1168-1.4008 0.2485-1.7397 0.3956-0.3389 0.1468-0.5987 0.3614-0.7831 0.6399-0.1845 0.2826-0.2788 0.5951-0.2788 0.9414 0 0.5234 0.1996 0.964 0.6026 1.3142 0.4029 0.3502 0.9904 0.5273 1.7622 0.5273 0.7644 0 1.4459-0.1658 2.0445-0.5009 0.5952-0.3315 1.0358-0.7869 1.3142-1.3631 0.2147-0.448 0.3203-1.1072 0.3203-1.9769zm9.3799 4.1006 0.271 1.7548c-0.5574 0.1165-1.058 0.1767-1.495 0.1767-0.7191 0-1.2763-0.1129-1.6757-0.3424-0.3953-0.2298-0.674-0.5273-0.8359-0.9s-0.2408-1.1561-0.2408-2.3496v-6.7555h-1.4687v-1.5363h1.4687v-2.8994l1.9882-1.1938v4.0932h1.9882v1.5363h-1.9882v6.8684c0 0.5685 0.0338 0.9338 0.1053 1.0957 0.0679 0.1619 0.1809 0.29 0.3389 0.3878 0.1581 0.094 0.384 0.1433 0.6779 0.1433 0.2182 0 0.5082-0.0264 0.8661-0.0792zm1.2161-4.0894c0-2.1652 0.6025-3.7694 1.8114-4.8123 1.0052-0.8661 2.2367-1.299 3.6864-1.299 1.6078 0 2.9258 0.5272 3.95 1.5813 1.0204 1.0506 1.5324 2.508 1.5324 4.3643 0 1.5063-0.2259 2.6885-0.6778 3.5508-0.4516 0.8623-1.1108 1.5328-1.9769 2.0108-0.8623 0.4783-1.8073 0.7155-2.8277 0.7155-1.6418 0-2.9673-0.5234-3.9802-1.574-1.013-1.0506-1.5176-2.5643-1.5176-4.5374zm2.0335 0.0039c0 1.4986 0.3277 2.6207 0.9827 3.3626 0.6589 0.7454 1.4835 1.1182 2.4816 1.1182 0.9865 0 1.8073-0.3728 2.4662-1.1221 0.6553-0.7493 0.983-1.8903 0.983-3.4228 0-1.4461-0.3315-2.5418-0.9904-3.2837-0.6589-0.7454-1.48-1.1182-2.4588-1.1182-0.9981 0-1.8227 0.3689-2.4816 1.1108-0.655 0.7419-0.9827 1.8601-0.9827 3.3552zm11.255 5.859v-11.726h1.7848v1.7961c0.4554-0.8321 0.8774-1.3818 1.2652-1.6454 0.3879-0.2675 0.8134-0.3991 1.2766-0.3991 0.6701 0 1.3515 0.2108 2.0445 0.6286l-0.7078 1.834c-0.4821-0.2713-0.964-0.4068-1.4461-0.4068-0.433 0-0.8208 0.1319-1.1636 0.3917-0.3425 0.2597-0.5874 0.6212-0.7342 1.0844-0.2221 0.7042-0.3312 1.4761-0.3312 2.3158v6.1265zm7.5459-13.917v-2.2592h1.9882v2.2592zm0 13.917v-11.726h1.9882v11.726zm13.018-3.7955 2.0561 0.271c-0.3203 1.1935-0.919 2.1237-1.7925 2.7826-0.8736 0.6592-1.9882 0.9904-3.3475 0.9904-1.7098 0-3.0652-0.5272-4.0668-1.5814-1.0017-1.0506-1.5025-2.5305-1.5025-4.4321 0-1.9657 0.5047-3.4943 1.5176-4.579 1.0129-1.0882 2.3271-1.6302 3.9423-1.6302 1.5627 0 2.8392 0.5307 3.8296 1.5964 0.9904 1.0658 1.4874 2.5644 1.4874 4.4959 0 0.1169-4e-3 0.2939-0.0113 0.5273h-8.732c0.075 1.2842 0.4367 2.2707 1.0918 2.9522 0.6514 0.6817 1.4686 1.0242 2.4439 1.0242 0.7268 0 1.348-0.1919 1.8601-0.5762 0.516-0.384 0.9225-0.9978 1.2238-1.8411zm-6.507-3.1859h6.5295c-0.0866-0.9865-0.3389-1.7246-0.7493-2.2177-0.629-0.7644-1.4497-1.1484-2.4549-1.1484-0.9116 0-1.6757 0.3048-2.2972 0.9148-0.6174 0.6102-0.9602 1.4271-1.0281 2.4513zm10.284 3.4794 1.9656-0.3163c0.1092 0.7869 0.4179 1.3895 0.9225 1.8114 0.5047 0.4178 1.2125 0.6287 2.1163 0.6287 0.9151 0 1.5927-0.1845 2.0372-0.5572 0.4406-0.3692 0.6627-0.806 0.6627-1.3068 0-0.448-0.1996-0.8021-0.5951-1.058-0.2785-0.177-0.9563-0.3991-2.0333-0.674-1.4536-0.3653-2.4588-0.6817-3.0237-0.9489-0.561-0.2713-0.9865-0.6402-1.2765-1.1146-0.29-0.4706-0.4368-0.9943-0.4368-1.5665 0-0.5234 0.1204-1.0053 0.3576-1.4498 0.2411-0.4441 0.5649-0.8133 0.9753-1.1069 0.309-0.2259 0.7306-0.4181 1.2614-0.5761 0.5349-0.1584 1.1034-0.2372 1.7133-0.2372 0.919 0 1.7246 0.1316 2.4176 0.3991 0.6965 0.2636 1.2086 0.6251 1.5401 1.077 0.3277 0.4554 0.5572 1.0618 0.6814 1.8224l-1.9428 0.271c-0.0866-0.6099-0.3428-1.0882-0.7644-1.4307-0.4217-0.3428-1.0168-0.5121-1.7887-0.5121-0.9076 0-1.5588 0.1506-1.9466 0.4516-0.3879 0.3013-0.5839 0.6553-0.5839 1.0583 0 0.2559 0.0792 0.4896 0.2411 0.6965 0.1619 0.2109 0.4142 0.3879 0.7606 0.5272 0.1995 0.0754 0.7795 0.2447 1.7509 0.5083 1.4008 0.3727 2.3799 0.6817 2.9371 0.9189 0.5575 0.2372 0.9943 0.5874 1.3104 1.0393 0.3202 0.4555 0.4783 1.0204 0.4783 1.6982 0 0.6589-0.1919 1.2801-0.5798 1.864-0.3878 0.5835-0.9453 1.0354-1.6721 1.3554-0.7303 0.3202-1.5549 0.4783-2.4739 0.4783-1.5211 0-2.6847-0.3164-3.4829-0.945-0.7983-0.6328-1.3068-1.5666-1.5289-2.8055z"/>
    <path d="m110.03 45.218h5.7901c1.5558 0 2.753 0.1211 3.5962 0.3679 0.8385 0.2471 1.4766 0.6009 1.9052 1.0669 0.4237 0.4658 0.7126 1.0342 0.8664 1.7048 0.149 0.6662 0.2236 1.6863 0.2236 3.0512v1.9285c0 0.75-0.0326 1.365-0.1025 1.8494-0.0699 0.4798-0.1771 0.8944-0.3354 1.2436-0.2796 0.6383-0.8106 1.132-1.5931 1.4815-0.7827 0.3492-1.7982 0.5262-3.0512 0.5262h-1.5419v8.888h-5.7574zm5.7574 3.7733v5.6457l0.4194 0.0279c0.5077 0 0.8664-0.1303 1.0805-0.3912 0.2097-0.2609 0.3169-0.806 0.3169-1.6305v-1.8261c0-0.7592-0.1211-1.253-0.3587-1.4812-0.2422-0.2281-0.7266-0.3446-1.4581-0.3446zm13.612 0.2235-0.2097 2.3756c0.4007-0.8616 0.8943-1.5325 1.4814-2.003 0.5869-0.4704 1.2531-0.708 1.9982-0.708v6.3772c-1.0014 0-1.7375 0.135-2.2033 0.4099-0.4703 0.2702-0.764 0.6522-0.8802 1.1412-0.1212 0.4845-0.1772 1.607-0.1772 3.3632v7.1551h-5.5152v-18.111zm16.96 6.3586v4.4392c0 1.6118-0.0837 2.8042-0.2468 3.5775-0.1631 0.7732-0.5124 1.486-1.0434 2.1382-0.531 0.6521-1.2252 1.1365-2.0775 1.4533-0.8573 0.3213-1.8215 0.4798-2.8928 0.4798-1.2392 0-2.278-0.1352-3.1212-0.4007-0.8383-0.2701-1.4904-0.6754-1.9469-1.2111-0.4612-0.5356-0.792-1.2018-0.997-1.9889-0.2049-0.7874-0.3073-1.938-0.3073-3.4471v-4.6444c0-1.6863 0.1815-2.9952 0.5402-3.9361 0.3588-0.9364 1.0109-1.6956 1.9611-2.278 0.9504-0.5823 2.1661-0.8757 3.6381-0.8757 1.2344 0 2.2965 0.1818 3.177 0.5451 0.8851 0.3633 1.5698 0.8477 2.0542 1.4441 0.4891 0.5961 0.8199 1.2111 0.9968 1.8491 0.1772 0.6383 0.2655 1.5885 0.2655 2.8557zm-5.5059-1.365c0-0.9363-0.0513-1.5232-0.1491-1.7608-0.1024-0.2376-0.3167-0.3541-0.6475-0.3541s-0.5497 0.1211-0.6614 0.3633c-0.1072 0.2376-0.1631 0.8247-0.1631 1.7516v8.1752c0 0.8478 0.0559 1.4021 0.1631 1.6676 0.1117 0.2655 0.326 0.3961 0.6476 0.3961 0.3213 0 0.5356-0.1165 0.6473-0.3541 0.1072-0.2376 0.1631-0.7454 0.1631-1.5278zm12.764-4.9936-0.0979 1.7188c0.4192-0.68 0.9223-1.1924 1.5186-1.5373 0.5963-0.3446 1.2718-0.5169 2.0264-0.5169 1.472 0 2.6272 0.68 3.475 2.045 0.4611-0.6801 0.9829-1.1926 1.5652-1.5327 0.5822-0.34 1.2251-0.5123 1.9377-0.5123 0.9225 0 1.6958 0.2235 2.3059 0.6754 0.6148 0.4519 1.0109 1.0155 1.1878 1.7004 0.1772 0.6847 0.2655 1.7467 0.2655 3.1954v12.875h-5.3382v-11.804c0-1.5372-0.0512-2.4923-0.1585-2.8648-0.1024-0.3774-0.3446-0.5638-0.7313-0.5638-0.3727 0-0.6242 0.1864-0.764 0.5497-0.107 0.3541-0.1631 1.3138-0.1631 2.8789v11.804h-5.3382v-11.506c0-1.7934-0.0466-2.8556-0.1398-3.1908-0.0838-0.3541-0.3214-0.5359-0.7221-0.5359-0.2373 0-0.447 0.0932-0.6242 0.2842-0.1723 0.1864-0.2747 0.4145-0.3027 0.6849v14.263h-5.3382v-18.111zm27.772 7.1551v3.801h-7.2483v-3.801zm18.167-11.152v4.416h-3.4097v17.692h-5.7436v-17.692h-3.4005v-4.416zm11.688 13.36h-7.1551v3.9269c0 0.8199 0.0558 1.3509 0.1723 1.5885s0.3447 0.3541 0.6941 0.3541c0.4146 0 0.6942-0.1631 0.8432-0.4845 0.1444-0.3215 0.2189-0.9271 0.2189-1.8074v-2.3898h5.2266v1.337c0 1.1366-0.0699 2.003-0.2097 2.5947-0.1444 0.5915-0.4706 1.225-0.9875 1.9052-0.5124 0.6801-1.174 1.1925-1.9844 1.5371-0.8106 0.3495-1.8074 0.5218-2.9906 0.5218-1.1647 0-2.1986-0.1677-3.0932-0.4985-0.899-0.3306-1.5931-0.7966-2.0868-1.388-0.489-0.5917-0.829-1.2393-1.02-1.9472-0.1911-0.7034-0.2889-1.7283-0.2889-3.0792v-5.287c0-0.8106 0.0513-1.5186 0.1491-2.1242 0.1024-0.6055 0.2655-1.1412 0.4936-1.6164 0.4194-0.913 1.1181-1.6117 2.0963-2.1054 0.9783-0.4893 2.1008-0.7361 3.3679-0.7361 1.5558 0 2.8321 0.2888 3.8291 0.8664 0.9968 0.5777 1.7002 1.3509 2.1101 2.3244 0.4099 0.9737 0.615 2.3433 0.615 4.1087zm-5.5341-2.9346v-1.3229c0-0.9504-0.0512-1.556-0.149-1.8261-0.1024-0.2655-0.3075-0.4007-0.6196-0.4007-0.3866 0-0.6242 0.1211-0.7172 0.3633-0.0886 0.2376-0.1352 0.8619-0.1352 1.8635v1.3229zm18.563-0.6429h-4.891v-0.9829c0-0.8478-0.0512-1.3742-0.1492-1.5839-0.0791-0.2281-0.3119-0.34-0.6985-0.34-0.3029 0-0.5313 0.1026-0.6849 0.3075-0.1537 0.2051-0.2282 0.5123-0.2282 0.9223 0 0.573 0.0372 0.9783 0.1163 1.2205 0.0747 0.2422 0.3075 0.5218 0.6941 0.8432 0.3867 0.3167 1.1832 0.7732 2.3851 1.3649 1.6025 0.7733 2.6505 1.5091 3.1536 2.2033 0.4985 0.6987 0.75 1.705 0.75 3.0231 0 1.4674-0.191 2.576-0.573 3.3214-0.382 0.7453-1.0247 1.3275-1.9285 1.7421-0.9036 0.4145-1.9844 0.6196-3.2421 0.6196-1.3928 0-2.5901-0.2189-3.5869-0.6568-0.9968-0.4378-1.6863-1.0295-2.0634-1.7795-0.3774-0.7453-0.5684-1.8726-0.5684-3.3866v-0.8711h4.8911v1.1461c0 0.9734 0.0605 1.6069 0.1864 1.8957 0.1258 0.2937 0.368 0.4381 0.7359 0.4381 0.3867 0 0.6614-0.0978 0.8199-0.2937 0.1631-0.1956 0.2422-0.6101 0.2422-1.2344 0-0.857-0.1024-1.3974-0.3027-1.621-0.2004-0.2235-1.2717-0.871-3.2097-1.9472-1.6164-0.8989-2.6039-1.7188-2.9624-2.4641-0.3588-0.7408-0.5405-1.6257-0.5405-2.6552 0-1.4487 0.191-2.5108 0.573-3.1957 0.382-0.68 1.0295-1.211 1.9472-1.5882 0.9176-0.3774 1.9797-0.5684 3.1767-0.5684 1.2019 0 2.2222 0.1536 3.0605 0.4565 0.8432 0.3075 1.4861 0.708 1.938 1.2065 0.4471 0.4936 0.722 0.9642 0.815 1.4067 0.098 0.4427 0.1444 1.1087 0.1444 1.9984zm7.7048-8.2171v2.8789h1.4815v2.8787h-1.4815v9.6612c0 1.1784 0.0607 1.84 0.1864 1.9798 0.1257 0.1395 0.6476 0.2094 1.5698 0.2094v2.9348h-2.2312c-1.295 0-2.1986-0.0512-2.7204-0.1585-0.5218-0.1024-0.9829-0.34-1.3883-0.7126-0.405-0.3728-0.6613-0.8106-0.7638-1.3183-0.1072-0.5031-0.1584-1.6397-0.1584-3.4098v-9.186h-1.174v-2.8787h1.174v-2.8789z"/>
   </g>
   <path d="m82.78 97.585 0.0103-15.486h15.51l-15.462-15.473 15.438-15.426h-15.462v-15.629l-31.02 31.055z" fill="#6d4889"/>
   <g fill="#9b9d9f">
    <path d="m59.754 48.98c0 0.646 0.7719 0.8761 1.1334 0.4827 0.6138-0.6681-0.3558-1.5201-0.9252-0.9505-0.0395 0.0397-0.1094 0.1423-0.1346 0.1909-0.0288 0.0554-0.0736 0.1934-0.0736 0.2769z"/>
    <path d="m45.986 70.634c0 0.3377 0.3139 0.651 0.6508 0.651 0.6748 0 0.8602-0.7867 0.4826-1.1336-0.4557-0.4188-1.1334-0.089-1.1334 0.4826z"/>
    <path d="m55.824 84.353c0 0.9373 1.3267 0.8962 1.3267 0.0251 0-0.5306-0.678-0.8849-1.1212-0.4705-0.0859 0.0803-0.2055 0.2883-0.2055 0.4454z"/>
    <path d="m42.056 74.564c0 0.044 0.0379 0.2104 0.052 0.2484 0.2363 0.6352 1.2747 0.4807 1.2747-0.2484s-0.9902-0.914-1.2603-0.284c-0.0226 0.0526-0.0664 0.224-0.0664 0.284z"/>
    <path d="m55.849 74.54c0 0.1796 0.0915 0.3766 0.1803 0.4706 0.578 0.6129 1.572-0.2487 0.9601-0.9101-0.4033-0.4359-1.1404-0.1315-1.1404 0.4395z"/>
    <path d="m45.986 56.865c0 0.3147 0.2897 0.651 0.6007 0.651h0.1251c0.5117 0 0.8377-0.7433 0.3896-1.1406-0.4634-0.4109-1.1154-0.0451-1.1154 0.4896z"/>
    <path d="m42.056 58.818c0 0.1609 0.08 0.3405 0.1849 0.4659 0.3362 0.4018 1.1418 0.188 1.1418-0.4659 0-0.7031-0.9983-0.8929-1.2677-0.2665-0.0184 0.0429-0.059 0.2196-0.059 0.2665z"/>
    <path d="m38.126 54.863c0 0.4028 0.2921 0.6862 0.6529 0.6969 0.5627 0.0168 0.9071-0.7024 0.4797-1.1286-0.0314-0.0313-0.1465-0.1159-0.1886-0.1369-0.3995-0.1989-0.944 0.1124-0.944 0.5686z"/>
    <path d="m55.824 45.024c0 0.955 1.3267 0.873 1.3267 0.0501 0-0.5338-0.6115-0.9014-1.1058-0.5051-0.0974 0.0782-0.2209 0.2878-0.2209 0.455z"/>
    <path d="m44.034 74.49v0.1252c0 0.758 1.2972 0.8342 1.3175-0.0533 0.0042-0.1815-0.0912-0.3633-0.1961-0.4674-0.4619-0.458-1.1214-0.0484-1.1214 0.3955z"/>
    <path d="m45.986 62.748c0 0.514 0.6167 0.921 1.12 0.4943 0.4052-0.3434 0.1888-1.1452-0.4442-1.1452-0.3561 0-0.6758 0.3007-0.6758 0.6509z"/>
    <path d="m55.799 66.679c0 0.8769 1.3267 0.9103 1.3267-0.0251 0-0.3038-0.3099-0.6259-0.6508-0.6259-0.3603 0-0.6759 0.2996-0.6759 0.651z"/>
    <path d="m59.754 84.378c0 0.6134 0.7332 0.8783 1.1185 0.4927 0.2606-0.2608 0.2722-0.6659 0.0264-0.9368-0.2453-0.2706-0.7124-0.2744-0.9515-0.0134-0.1066 0.1162-0.1934 0.3015-0.1934 0.4575z"/>
    <path d="m61.807 78.395c0 0.6263 0.7297 0.8868 1.1328 0.482 0.2557-0.2567 0.2548-0.6747-0.0047-0.9343-0.419-0.4191-1.1281-0.1029-1.1281 0.4523z"/>
    <path d="m55.799 62.723c0 0.9187 1.3267 0.9268 1.3267 0 0-0.4122-0.5804-0.9016-1.1198-0.444-0.0909 0.0771-0.2069 0.2841-0.2069 0.444z"/>
    <path d="m51.869 66.654c0 0.9245 1.2971 0.9088 1.3227 0.048 0.0178-0.5963-0.728-0.8858-1.13-0.4811-0.088 0.0886-0.1927 0.2711-0.1927 0.4331z"/>
    <path d="m61.807 74.464c0 0.5949 0.6833 0.8891 1.1199 0.4942 0.4127-0.3734 0.1645-1.145-0.4691-1.145-0.3215 0-0.6508 0.2972-0.6508 0.6508z"/>
    <path d="m67.764 60.646c0 0.887 1.3268 0.8832 1.3268 0.025 0-0.7507-0.985-0.8802-1.2526-0.3013-0.0221 0.0479-0.0742 0.2088-0.0742 0.2763z"/>
    <path d="m55.824 48.954c0 0.1989 0.0663 0.3827 0.1928 0.5083 0.4432 0.4402 1.1339 0.058 1.1339-0.4332 0-0.6197-0.6881-0.9099-1.1199-0.5192-0.0816 0.0739-0.2068 0.2948-0.2068 0.4441z"/>
    <path d="m50.592 92.915c0.8532 0 0.8532-1.3269 0-1.3269-0.8692 0-0.8765 1.3269 0 1.3269z"/>
    <path d="m71.569 72.587c0 0.2262 0.0504 0.3572 0.1806 0.4954 0.4274 0.4533 1.1462 0.0968 1.1462-0.4454 0-0.3601-0.3173-0.6759-0.6759-0.6759-0.3239 0-0.6509 0.306-0.6509 0.6259z"/>
    <path d="m55.824 88.283c0 0.2868 0.1522 0.5419 0.3846 0.6418 0.432 0.1859 0.9421-0.1269 0.9421-0.5918 0-0.6012-0.711-0.8817-1.1212-0.4954-0.0859 0.0808-0.2055 0.2878-0.2055 0.4454z"/>
    <path d="m47.964 96.144c0 0.9908 1.3017 0.8334 1.3017 0.1252 0-0.2787 0.0128-0.3522-0.2056-0.5704-0.2355-0.2352-0.6509-0.2263-0.8909-4e-4 -0.089 0.0839-0.2052 0.2819-0.2052 0.4456z"/>
    <path d="m51.894 92.239c0 0.7442 0.9667 0.912 1.2523 0.3013 0.2342-0.5005-0.1809-0.9522-0.5765-0.9522-0.3639 0-0.6758 0.292-0.6758 0.6509z"/>
    <path d="m45.986 54.888c0 0.2563 0.1824 0.52 0.3954 0.6058 0.2807 0.1129 0.4874 0.0808 0.7213-0.1148 0.5024-0.4205 0.0473-1.3708-0.6991-1.0998-0.0577 0.0209-0.1676 0.101-0.2106 0.1399-0.092 0.0832-0.207 0.2999-0.207 0.4689z"/>
    <path d="m51.894 76.542c0 0.3528 0.3225 0.6572 0.6737 0.6469 0.5002-0.0146 0.8865-0.6267 0.4714-1.1161-0.3323-0.3917-1.1451-0.2269-1.1451 0.4692z"/>
    <path d="m54.522 41.795c0.3434 0 0.6509-0.309 0.6509-0.6009v-0.1252c0-0.2995-0.3044-0.6008-0.6509-0.6008-0.8782 0-0.8587 1.3269 0 1.3269z"/>
    <path d="m59.729 70.584c0 0.8707 1.3268 0.8662 1.3268 0 0-0.3269-0.2871-0.6509-0.6008-0.6509h-0.1252c-0.3144 0-0.6008 0.3275-0.6008 0.6509z"/>
    <path d="m51.894 45.049c0 0.9037 1.2975 0.8693 1.3226 0.0229 0.0126-0.4232-0.4523-0.8178-0.9379-0.6145-0.0674 0.0284-0.144 0.0857-0.1919 0.1336-0.0986 0.0987-0.1928 0.2721-0.1928 0.458z"/>
    <path d="m36.148 54.863c0 0.5976 0.7021 0.9167 1.1214 0.5208 0.4197-0.3962 0.1689-1.1467-0.4455-1.1467-0.4188 0-0.6759 0.3892-0.6759 0.6259z"/>
    <path d="m69.617 74.54c0 0.2163 0.0782 0.3466 0.1818 0.469 0.2276 0.269 0.7354 0.2698 0.9633 3e-4 0.4409-0.5216-0.0126-1.1202-0.4693-1.1202-0.3585 0-0.6758 0.2953-0.6758 0.6509z"/>
    <path d="m50.592 41.795c0.1857 0 0.3744-0.1033 0.4704-0.2055 0.4014-0.4277 0.0931-1.1214-0.4704-1.1214-0.8739 0-0.8719 1.3269 0 1.3269z"/>
    <path d="m50.567 37.864c0.6172 0 0.8843-0.7365 0.4955-1.1215-0.6416-0.6351-1.5369 0.2943-0.9531 0.9031 0.1167 0.1217 0.2796 0.2184 0.4576 0.2184z"/>
    <path d="m50.592 45.725c0.9229 0 0.8487-1.5153-0.1729-1.2995-0.2129 0.0449-0.4394 0.2653-0.4757 0.5024-0.0714 0.4654 0.2538 0.7971 0.6486 0.7971z"/>
    <path d="m66.388 75.14c0.1 0 0.1982-0.0236 0.2731-0.0523 0.3646-0.1397 0.5669-0.6852 0.2209-1.0677-0.355-0.3926-1.1232-0.1907-1.1405 0.4463-0.0096 0.355 0.2895 0.6737 0.6465 0.6737z"/>
    <path d="m51.869 68.656c0 0.9005 1.3268 0.8342 1.3268 0 0-0.3086-0.272-0.6509-0.6008-0.6509-0.2484 0-0.355 0.013-0.5454 0.2057-0.0986 0.0998-0.1806 0.2579-0.1806 0.4452z"/>
    <path d="m59.729 68.606c0 0.5825 0.6811 0.8923 1.12 0.4941 0.2495-0.2263 0.2856-0.6497 0.0247-0.9379-0.228-0.2518-0.6585-0.278-0.9378-0.0253-0.0871 0.0787-0.2069 0.3151-0.2069 0.4691z"/>
    <path d="m73.672 62.648c0 0.3926 0.3105 0.6868 0.6529 0.697 0.3516 0.0105 0.6738-0.3019 0.6738-0.697 0-0.3024-0.2994-0.6258-0.6008-0.6258h-0.1252c-0.3014 0-0.6007 0.3234-0.6007 0.6258z"/>
    <path d="m38.126 78.495c0 0.5317 0.6552 0.8898 1.1196 0.4689 0.4286-0.3886 0.1363-1.1234-0.4458-1.1407-0.3617-0.0109-0.6738 0.3028-0.6738 0.6718z"/>
    <path d="m75.725 70.534c0 0.2178 0.1018 0.3794 0.2272 0.4989l0.1475 0.1028c0.6969 0.3243 1.248-0.5452 0.7715-1.047-0.4231-0.4457-1.1462-0.1158-1.1462 0.4453z"/>
    <path d="m38.126 76.492c0 0.1962 0.077 0.3895 0.1861 0.4897 0.509 0.4674 1.1406 0.0637 1.1406-0.4897 0-0.3019-0.3039-0.6259-0.6008-0.6259-0.224 0-0.3599 0.0132-0.533 0.193-0.085 0.0885-0.1929 0.2716-0.1929 0.4329z"/>
    <path d="m69.617 76.517c0 0.8757 1.3266 0.8654 1.3266 0 0-0.5736-0.7297-0.887-1.1461-0.4454-0.0974 0.1033-0.1805 0.2534-0.1805 0.4454z"/>
    <path d="m63.784 78.395c0 0.9365 1.3017 0.8305 1.3017 0.0751 0-0.2322-0.0166-0.3703-0.2058-0.5452-0.1945-0.1796-0.4632-0.2254-0.7111-0.1214-0.2078 0.0871-0.3848 0.3148-0.3848 0.5915z"/>
    <path d="m45.986 78.495c0 0.5333 0.6762 0.8899 1.1211 0.4704 0.3554-0.3352 0.2223-0.8888-0.1692-1.072-0.1964-0.0919-0.328-0.0893-0.5203-0.0181-0.2361 0.0873-0.4316 0.3385-0.4316 0.6197z"/>
    <path d="m50.542 49.656c0.9694 0 0.8775-1.3269 0.0501-1.3269-0.4961 0-0.9005 0.5978-0.5019 1.1028 0.0768 0.0972 0.2811 0.2241 0.4518 0.2241z"/>
    <path d="m51.894 84.403c0 0.3725 0.3874 0.7975 0.9168 0.5915 0.1321-0.0514 0.2906-0.2077 0.3435-0.3325 0.1168-0.2753 0.064-0.5067-0.1186-0.7249-0.3312-0.3959-1.1417-0.2239-1.1417 0.4659z"/>
    <path d="m44.034 78.42c0 0.17-0.0147 0.2375 0.0794 0.3962 0.3341 0.5627 1.221 0.3658 1.2381-0.3244 0.0139-0.5641-0.702-0.8797-1.1123-0.4925-0.0885 0.0837-0.2052 0.2564-0.2052 0.4207z"/>
    <path d="m55.849 70.609c0 0.6014 0.6914 0.882 1.1199 0.4941 0.4183-0.3786 0.1349-1.1451-0.444-1.1451-0.3575 0-0.6759 0.2944-0.6759 0.651z"/>
    <path d="m51.894 41.144c0 0.1845 0.0891 0.3416 0.182 0.4438 0.1789 0.197 0.4903 0.2611 0.7369 0.1498l0.1806-0.1198c0.2847-0.2708 0.2971-0.6599 0.0309-0.9534-0.3473-0.3831-1.1304-0.1905-1.1304 0.4796z"/>
    <path d="m77.051 66.629c0-0.9693-1.4905-0.8577-1.3032 0.1263 0.017 0.0893 0.0254 0.1106 0.0678 0.1829 0.0302 0.0515 0.0132 0.0274 0.0508 0.0745l0.0602 0.0648c0.0903 0.0864 0.1671 0.1462 0.3053 0.1716 0.5015 0.0922 0.8191-0.283 0.8191-0.6201z"/>
    <path d="m69.742 62.673c0 0.5301 0.6509 0.93 1.121 0.4701 0.4572-0.4473 0.0568-1.121-0.3951-1.121-0.2483 0-0.3549 0.0129-0.5453 0.2057-0.0987 0.0999-0.1806 0.258-0.1806 0.4452z"/>
    <path d="m45.986 76.517c0 0.4754 0.5802 0.9217 1.1017 0.5009 0.3893-0.3142 0.3053-1.1519-0.501-1.1519-0.311 0-0.6007 0.3362-0.6007 0.651z"/>
    <path d="m45.986 74.564c0 0.5424 0.7023 0.8897 1.1338 0.458 0.6034-0.6037-0.3033-1.5535-0.9284-0.9284-0.1048 0.1048-0.2054 0.2703-0.2054 0.4704z"/>
    <path d="m51.894 88.308c0 0.9039 1.2977 0.8602 1.3226 0.0229 0.0107-0.3553-0.3158-0.6739-0.6718-0.6739-0.3514 0-0.6508 0.2996-0.6508 0.651z"/>
    <path d="m63.684 54.838c0 0.5912 0.6883 0.8848 1.1199 0.4942 0.2667-0.2413 0.2627-0.7011 0.0129-0.9511-0.3937-0.3939-1.1328-0.1259-1.1328 0.4569z"/>
    <path d="m69.617 70.609c0 0.5443 0.612 0.9128 1.1167 0.4909 0.2696-0.2254 0.2719-0.7116 0.0137-0.9456-0.4857-0.4404-1.1304-0.0548-1.1304 0.4547z"/>
    <path d="m51.894 58.843c0 0.4287 0.4567 0.7844 0.9168 0.5916 0.4204-0.1761 0.5421-0.7476 0.216-1.0735-0.2444-0.2444-0.6833-0.2737-0.9523 0.0116-0.1078 0.1144-0.1805 0.2562-0.1805 0.4703z"/>
    <path d="m59.754 58.768c0 0.6658 0.7993 0.8754 1.1417 0.466 0.2254-0.2694 0.25-0.661-0.0133-0.9185-0.4266-0.4174-1.1284-0.1054-1.1284 0.4525z"/>
    <path d="m51.894 54.913c0 0.5188 0.6669 0.8844 1.1088 0.458 0.6414-0.6187-0.2776-1.5522-0.9158-0.9409-0.1186 0.1136-0.193 0.2613-0.193 0.4829z"/>
    <path d="m51.894 48.98c0 0.7499 0.969 0.9108 1.2521 0.3009 0.2454-0.5285-0.2162-0.9519-0.6013-0.9519-0.3378 0-0.6508 0.305-0.6508 0.651z"/>
    <path d="m42.056 54.888c0 0.2393 0.1642 0.5039 0.3744 0.6018 0.4885 0.2273 0.9523-0.1634 0.9523-0.6018 0-0.7193-1.0086-0.8839-1.2673-0.2661-0.0192 0.0455-0.0594 0.2169-0.0594 0.2661z"/>
    <path d="m38.126 56.865c0 0.1742 0.0884 0.3457 0.1808 0.4451 0.3977 0.4283 1.1459 0.153 1.1459-0.4451 0-0.3593-0.3135-0.6618-0.6529-0.6718-0.1922-0.0058-0.3687 0.1013-0.4717 0.198l-0.0711 0.0792c-0.0303 0.0405-0.041 0.0587-0.0656 0.1096-0.0416 0.0861-0.0654 0.1672-0.0654 0.285z"/>
    <path d="m54.547 71.285c0.3415 0 0.6509-0.3088 0.6509-0.6008 0-0.2332-0.0165-0.3693-0.2059-0.5452-0.6102-0.5671-1.5275 0.3196-0.9152 0.9403 0.1109 0.1123 0.2586 0.2057 0.4702 0.2057z"/>
    <path d="m45.986 58.818c0 0.2628 0.1901 0.5134 0.3924 0.6087 0.266 0.1252 0.5208 0.0522 0.7243-0.1178 0.387-0.3236 0.2457-1.1419-0.491-1.1419-0.3203 0-0.6257 0.3218-0.6257 0.651z"/>
    <path d="m38.126 52.935c0 0.1717 0.0999 0.3661 0.1926 0.4583 0.4238 0.4209 1.1341 0.1046 1.1341-0.4583 0-0.8678-1.3267-0.8768-1.3267 0z"/>
    <path d="m51.894 70.609c0 0.8619 1.2466 0.9071 1.321 0.0438 0.0302-0.3503-0.3101-0.6948-0.6452-0.6948-0.3628 0-0.6758 0.2908-0.6758 0.651z"/>
    <path d="m65.687 70.609c0 0.8825 1.2973 0.89 1.3167 0.022 0.0135-0.6021-0.7245-0.8807-1.1241-0.4803-0.0927 0.093-0.1926 0.2826-0.1926 0.4583z"/>
    <path d="m53.871 46.952v0.1502c0 0.4719 0.6675 0.806 1.0949 0.4191 0.4339-0.3928 0.1227-1.1451-0.3689-1.1451h-0.1503c-0.2795 0-0.5757 0.2963-0.5757 0.5758z"/>
    <path d="m65.737 80.372c0 0.348 0.2998 0.6614 0.6529 0.6719 0.3546 0.0106 0.6738-0.3161 0.6738-0.6719 0-0.7193-1.0086-0.8839-1.2673-0.2661-0.0191 0.0455-0.0594 0.2169-0.0594 0.2661z"/>
    <path d="m61.156 80.448v-0.1251c0-0.6143-0.974-0.8765-1.2602-0.209-0.2253 0.525 0.2744 1.0789 0.8323 0.8825 0.1879-0.0662 0.4279-0.2939 0.4279-0.5484z"/>
    <path d="m63.784 62.648c0 0.6632 0.7232 0.8991 1.1284 0.5027 0.3956-0.3869 0.1557-1.1285-0.5026-1.1285-0.3154 0-0.6258 0.3119-0.6258 0.6258z"/>
    <path d="m51.894 74.54c0 0.7401 0.9657 0.9177 1.2521 0.301 0.376-0.8098-0.8225-1.3198-1.185-0.5844-0.0291 0.0589-0.0671 0.2044-0.0671 0.2834z"/>
    <path d="m42.056 76.517c0 0.3479 0.2998 0.6614 0.6529 0.6718 0.1511 0.0045 0.3321-0.0714 0.4464-0.1732 0.0039-0.0035 0.0093-0.0086 0.0129-0.0122 0.0037-0.0035 0.0088-9e-3 0.0124-0.0127 0.4672-0.4773 0.0319-1.1247-0.3987-1.1247-0.225 0-0.3734 0.0235-0.5454 0.2056-0.1081 0.1146-0.1805 0.2952-0.1805 0.4454z"/>
    <path d="m55.824 52.935c0 0.4294 0.4332 0.7866 0.924 0.5987 0.6295-0.2412 0.4451-1.2495-0.173-1.2495-0.2399 0-0.4092 0.0065-0.5799 0.1961-0.0854 0.0947-0.1711 0.2773-0.1711 0.4547z"/>
    <path d="m59.754 82.4c0 0.9133 1.3267 0.8709 1.3267 0.025 0-0.3344-0.296-0.6509-0.5757-0.6509h-0.1753c-0.2881 0-0.5757 0.335-0.5757 0.6259z"/>
    <path d="m42.056 80.423c0 0.3794 0.2686 0.6787 0.6542 0.6845 0.866 0.0129 0.9244-1.3104-0.0284-1.3104-0.3371 0-0.6258 0.3335-0.6258 0.6259z"/>
    <path d="m51.869 62.723c0 0.2368 0.0666 0.3595 0.1867 0.4892 0.3936 0.4252 1.1185 0.1484 1.136-0.4412 5e-3 -0.1665-0.1001-0.3905-0.1901-0.4798-0.4276-0.4248-1.1326-0.088-1.1326 0.4318z"/>
    <path d="m59.754 60.746c0 0.324 0.2755 0.651 0.5757 0.651 0.277 0 0.3534 0.0128 0.5703-0.2057 0.1819-0.1833 0.2224-0.47 0.1213-0.7113-0.261-0.6232-1.2673-0.4589-1.2673 0.266z"/>
    <path d="m51.894 39.141c0 0.3863 0.3055 0.6759 0.6008 0.6759 0.3056 0 0.5263-0.0921 0.6512-0.3751 0.124-0.2807 0.0796-0.528-0.1183-0.7336-0.4553-0.4731-1.1337-0.0779-1.1337 0.4328z"/>
    <path d="m50.592 85.054c0.3276 0 0.6508-0.2773 0.6508-0.6759 0-0.6341-0.799-0.8505-1.1418-0.4409-0.3894 0.4655-0.0597 1.1168 0.491 1.1168z"/>
    <path d="m59.754 47.027c0 0.3663 0.3147 0.6591 0.6539 0.6667 0.5507 0.0123 0.9059-0.6932 0.4921-1.1119-0.446-0.4515-1.146-0.1174-1.146 0.4452z"/>
    <path d="m44.034 58.768c0 0.3104 0.0982 0.5255 0.3869 0.6646 0.2399 0.1157 0.5369 0.0455 0.7218-0.1316 0.1966-0.1884 0.2609-0.4475 0.1551-0.7204-0.2513-0.6485-1.2638-0.4712-1.2638 0.1874z"/>
    <path d="m54.522 92.915c0.3465 0 0.6509-0.3013 0.6509-0.6008 0-0.2251-0.0234-0.3735-0.2055-0.5456-0.2523-0.2381-0.6335-0.2475-0.9032 0.0126-0.4374 0.422-0.1218 1.1338 0.4578 1.1338z"/>
    <path d="m63.709 68.656c0 0.28 0.2688 0.6509 0.6008 0.6509 0.2316 0 0.3439 0.0021 0.5366-0.1894 0.4057-0.4027 0.1148-1.1124-0.4115-1.1124-0.2313 0-0.3714 0.0171-0.5454 0.2055-0.0785 0.085-0.1805 0.292-0.1805 0.4454z"/>
    <path d="m60.455 79.071c0.3943 0 0.7009-0.2772 0.7009-0.6008 0-0.2145-0.0275-0.3915-0.2067-0.5443-0.1979-0.1688-0.4465-0.2328-0.7101-0.1223-0.2065 0.0864-0.3842 0.3307-0.4044 0.5726-0.015 0.1802 0.0898 0.3712 0.1695 0.4698 0.0735 0.0913 0.2847 0.225 0.4508 0.225z"/>
    <path d="m34.196 80.448c0 0.1152 0.0133 0.205 0.0573 0.2932 0.1096 0.2201 0.3182 0.3621 0.597 0.3663s0.5083-0.1637 0.5982-0.3581c0.1301-0.2815 0.0604-0.5791-0.1198-0.7582-0.0328-0.0325-0.1445-0.1147-0.1907-0.1348-0.4635-0.201-0.942 0.1314-0.942 0.5916z"/>
    <path d="m57.802 46.927v0.1753c0 0.5033 0.7247 0.7925 1.1076 0.4067 0.2031-0.2046 0.2479-0.5254 0.1448-0.758-0.1791-0.4038-0.7374-0.5026-1.059-0.2063-0.0694 0.0639-0.1934 0.2658-0.1934 0.3823z"/>
    <path d="m55.824 58.718c0 0.5417 0.6268 0.9401 1.1201 0.5193 0.2742-0.234 0.2832-0.6986 0.0011-0.9647-0.3374-0.3181-0.8669-0.1932-1.0466 0.1945-0.015 0.0322-0.0746 0.212-0.0746 0.2509z"/>
    <path d="m64.385 71.285c0.3414 0 0.6508-0.3088 0.6508-0.6008 0-0.2258-0.0232-0.3724-0.2055-0.5455-0.1869-0.1775-0.4471-0.2235-0.7115-0.1213-0.205 0.079-0.3981 0.3392-0.4056 0.5937-0.0106 0.353 0.3149 0.6739 0.6718 0.6739z"/>
    <path d="m36.148 78.495c0 0.2918 0.2697 0.6509 0.6759 0.6509 0.3301 0 0.6509-0.2838 0.6509-0.6008 0-0.3057-0.0922-0.5264-0.3752-0.6513-0.5605-0.2476-0.9516 0.2527-0.9516 0.6012z"/>
    <path d="m42.056 50.957c0 0.2964 0.2558 0.6509 0.5757 0.6509 0.277 0 0.3533 0.0129 0.5703-0.2058 0.6069-0.6111-0.3727-1.509-0.9531-0.903-0.11 0.1149-0.1929 0.2894-0.1929 0.4579z"/>
    <path d="m73.722 70.459v0.1252c0 0.4781 0.6817 0.8217 1.0835 0.4327 0.2373-0.2298 0.2181-0.3121 0.2181-0.6079 0-0.3371-0.6169-0.8124-1.0958-0.3699-0.0974 0.0899-0.2058 0.2431-0.2058 0.4199z"/>
    <path d="m55.824 56.79c0 0.3207 0.2743 0.6508 0.6759 0.6508 0.33 0 0.6508-0.2838 0.6508-0.6008 0-0.2122-0.027-0.3663-0.1803-0.5205-0.3968-0.3995-1.1464-0.1186-1.1464 0.4705z"/>
    <path d="m51.243 76.517c0-0.7227-1.0051-0.9035-1.2677-0.2415-0.2784 0.702 0.6724 1.2745 1.1507 0.6251 0.0738-0.1002 0.117-0.2219 0.117-0.3836z"/>
    <path d="m63.684 82.425c0 0.7124 1.0023 0.8878 1.2599 0.2837 0.2365-0.5546-0.2337-0.9346-0.509-0.9346h-0.1752c-0.298 0-0.5757 0.3429-0.5757 0.6509z"/>
    <path d="m65.762 58.668c0 0.6384 0.6894 0.8829 1.1196 0.4938 0.4005-0.3621 0.1379-1.1197-0.3936-1.1197-0.1916 0-0.402 0.0123-0.5553 0.1958-0.0958 0.1149-0.1707 0.2256-0.1707 0.4301z"/>
    <path d="m67.714 56.79c0 0.5616 0.7083 0.881 1.134 0.4581 0.4033-0.4007 0.1123-1.1091-0.4081-1.1091-0.2363 0-0.3527-0.0026-0.5526 0.1985-0.0874 0.0879-0.1733 0.2751-0.1733 0.4525z"/>
    <path d="m54.547 75.216c0.33 0 0.6509-0.2839 0.6509-0.6008 0-0.2147-0.0276-0.3915-0.2068-0.5443-0.7107-0.6063-1.559 0.4743-0.8388 1.014 0.0406 0.0302 0.0588 0.0411 0.1097 0.0657 0.0861 0.0415 0.1671 0.0654 0.285 0.0654z"/>
    <path d="m51.894 80.473c0 0.3466 0.2866 0.6434 0.6726 0.6348 0.7375-0.0165 0.8622-0.9942 0.2693-1.2514-0.4507-0.1953-0.9419 0.1073-0.9419 0.6166z"/>
    <path d="m50.592 53.586c0.919 0 0.8541-1.4934-0.1647-1.2924-0.703 0.1387-0.6529 1.2924 0.1647 1.2924z"/>
    <path d="m59.729 64.676c0 0.4809 0.5876 0.9349 1.1168 0.491 0.4271-0.3584 0.1599-1.1419-0.4408-1.1419-0.2028 0-0.3565 0.0804-0.4688 0.1821-0.0878 0.0795-0.2072 0.314-0.2072 0.4688z"/>
    <path d="m34.196 82.375c0 0.7175 0.7576 0.8822 1.134 0.5083 0.399-0.3962 0.0882-1.1091-0.383-1.1091h-0.1752c-0.2871 0-0.5758 0.3137-0.5758 0.6008z"/>
    <path d="m60.505 75.14c0.3414 0 0.6508-0.3088 0.6508-0.6008 0-0.2257-0.0232-0.3723-0.2055-0.5455-0.1868-0.1775-0.4471-0.2233-0.7116-0.1213-0.2091 0.0807-0.3989 0.3506-0.4057 0.5938-0.0097 0.3532 0.3145 0.6738 0.672 0.6738z"/>
    <path d="m66.362 79.071c0.7775 0 0.9335-0.9681 0.3261-1.2524-0.3797-0.1776-0.8296 0.0339-0.9204 0.4077-0.1194 0.4912 0.2515 0.8447 0.5943 0.8447z"/>
    <path d="m67.714 58.693c0 0.363 0.2891 0.6508 0.7259 0.6508 0.5038 0 0.8215-0.7143 0.4176-1.1186-0.3836-0.3839-1.1435-0.1466-1.1435 0.4678z"/>
    <path d="m38.126 80.423c0 0.9126 1.3267 0.9075 1.3267 0 0-0.5056-0.696-0.8684-1.1341-0.4332-0.0803 0.0799-0.1926 0.2841-0.1926 0.4332z"/>
    <path d="m42.056 60.796c0 0.3295 0.2635 0.6509 0.6758 0.6509 0.8769 0 0.8115-1.3018 0.0501-1.3018-0.2554 0-0.3526 0.0116-0.5453 0.2058-0.0608 0.0612-0.0863 0.0879-0.1215 0.1789-0.0193 0.0501-0.0591 0.2137-0.0591 0.2662z"/>
    <path d="m44.034 76.492c0 0.6888 0.7405 0.8765 1.1215 0.4957 0.6203-0.6205-0.3242-1.5368-0.9282-0.9283-0.1116 0.1123-0.1933 0.2169-0.1933 0.4326z"/>
    <path d="m44.034 54.788c0 0.2354-0.0018 0.4003 0.2052 0.5959 0.484 0.4569 1.3225-0.0558 1.0585-0.7333l-0.114-0.1863c-0.522-0.5446-1.1497-0.0049-1.1497 0.3237z"/>
    <path d="m71.744 64.626c0 0.3137 0.2795 0.651 0.5759 0.651 0.2252 0 0.3648 0.0164 0.5701-0.2059 0.4331-0.4689 0.0096-1.0959-0.42-1.0959h-0.1252c-0.3169 0-0.6008 0.3208-0.6008 0.6508z"/>
    <path d="m40.104 58.768c0 0.3034 0.1066 0.5501 0.3848 0.6667 0.4178 0.175 0.9169-0.0814 0.9169-0.6416 0-0.8455-1.3017-0.7847-1.3017-0.0251z"/>
    <path d="m45.986 52.935c0 0.5521 0.7067 0.8855 1.1338 0.4581 0.4274-0.4278 0.0783-1.1089-0.3829-1.1089h-0.1752c-0.3032 0-0.5757 0.3426-0.5757 0.6508z"/>
    <path d="m42.056 72.587c0 0.3134 0.2672 0.6508 0.6007 0.6508h0.1252c0.7491 0 0.8515-1.3018-0.0751-1.3018-0.2767 0-0.5044 0.177-0.5914 0.3849-0.0192 0.0455-0.0594 0.2169-0.0594 0.2661z"/>
    <path d="m71.72 62.598v0.1502c0 0.4213 0.6058 0.8364 1.0949 0.4192 0.2582-0.2204 0.2903-0.6671 0.0204-0.9588-0.3637-0.393-1.1153-0.121-1.1153 0.3894z"/>
    <path d="m51.894 56.84c0 0.7441 0.9638 0.9218 1.2521 0.3009 0.2159-0.4648-0.1127-0.8978-0.5612-0.9424-0.356-0.0355-0.6909 0.2903-0.6909 0.6415z"/>
    <path d="m44.034 72.512v0.1501c0 0.2795 0.2962 0.5758 0.5757 0.5758 0.2172 0 0.4037-0.0125 0.5693-0.2067 0.2285-0.2678 0.221-0.6191-0.0034-0.8849-0.3694-0.4381-1.1416-0.1406-1.1416 0.3657z"/>
    <path d="m71.569 66.679c0 0.3685 0.2351 0.7009 0.6259 0.7009 0.973 0 0.8312-1.3018 0.1001-1.3018h-0.1252c-0.2936 0-0.6008 0.3096-0.6008 0.6009z"/>
    <path d="m55.824 78.495c0 0.3457 0.2795 0.6509 0.6759 0.6509 0.5116 0 0.8982-0.6482 0.4576-1.1084-0.4388-0.4582-1.1335-0.1149-1.1335 0.4575z"/>
    <path d="m55.824 54.863c0 0.1963 0.079 0.3885 0.1832 0.4927 0.0379 0.0379 0.145 0.1122 0.1915 0.134 0.4964 0.2322 0.952-0.1827 0.952-0.6016 0-0.5367-0.6838-0.8827-1.1211-0.4704-0.0949 0.0895-0.2056 0.2705-0.2056 0.4453z"/>
    <path d="m47.964 39.116c0 0.7378 0.7841 0.8578 1.1075 0.532 0.5942-0.5986-0.2189-1.5564-0.9009-0.9762-0.0911 0.0776-0.2066 0.2853-0.2066 0.4442z"/>
    <path d="m51.894 94.241c0 0.2649 0.1697 0.4672 0.3761 0.5753 0.3548 0.1856 0.7492-0.0287 0.8797-0.3206 0.1097-0.245 0.0762-0.5288-0.1094-0.7253-0.2568-0.272-0.6838-0.2854-0.9658 4e-4 -0.111 0.1125-0.1806 0.2552-0.1806 0.4702z"/>
    <path d="m51.894 78.47c0 0.7528 0.9679 0.9132 1.2521 0.3009 0.2437-0.5248-0.2267-0.9518-0.6013-0.9518-0.3236 0-0.6508 0.3027-0.6508 0.6509z"/>
    <path d="m55.824 86.356c0 0.3286 0.2878 0.651 0.6008 0.651h0.1251c0.3097 0 0.6008-0.3325 0.6008-0.651 0-0.3654-0.3172-0.6561-0.6534-0.6667-0.348-0.0108-0.6733 0.3004-0.6733 0.6667z"/>
    <path d="m42.056 78.495c0 0.1565 0.0768 0.3419 0.1928 0.458 0.4144 0.4142 1.1339 0.1195 1.1339-0.458 0-0.5367-0.667-0.9236-1.1207-0.4698-0.1213 0.1213-0.206 0.2795-0.206 0.4698z"/>
    <path d="m65.737 72.512c0 0.3336 0.3136 0.6508 0.5507 0.6508 0.291 0 0.3709 0.0204 0.5954-0.2057 0.4187-0.4216 0.0441-1.0961-0.4202-1.0961-0.2321 0-0.3702 0.0166-0.5451 0.2059-0.103 0.1115-0.1808 0.2848-0.1808 0.4451z"/>
    <path d="m44.034 70.559c0 0.2483 0.013 0.355 0.2056 0.5453 0.5931 0.5861 1.5214-0.3402 0.9158-0.9408-0.4637-0.4597-1.1214-0.0526-1.1214 0.3955z"/>
    <path d="m47.964 88.283c0 0.2126 0.0545 0.3698 0.1928 0.5081 0.4354 0.4354 1.1089 0.0502 1.1089-0.3829 0-0.2345 0.0162-0.3067-0.1298-0.4961-0.3947-0.5123-1.1719-0.1775-1.1719 0.3709z"/>
    <path d="m44.034 60.721c0 0.2097 0.0073 0.3652 0.1832 0.5426 0.3724 0.3754 1.1034 0.1614 1.1306-0.4489 0.0143-0.3213-0.2621-0.6696-0.5878-0.6696h-0.1503c-0.2795 0-0.5757 0.2963-0.5757 0.5759z"/>
    <path d="m44.034 62.698c0 0.225 0.0235 0.3735 0.2055 0.5455 0.0443 0.0418 0.1172 0.0952 0.1793 0.1212 0.4612 0.1932 0.919-0.1547 0.9327-0.5942 0.0172-0.5474-0.6916-0.908-1.1119-0.4927-0.0988 0.0978-0.2056 0.2347-0.2056 0.4202z"/>
    <path d="m61.807 72.487c0 0.369 0.2894 0.6759 0.5757 0.6759 0.2254 0 0.3756 0.0144 0.5822-0.2188 0.3966-0.4479 0.0151-1.083-0.4321-1.083h-0.125c-0.3032 0-0.6008 0.3194-0.6008 0.6259z"/>
    <path d="m65.762 64.526v0.1252c0 0.2918 0.3076 0.6008 0.6509 0.6008 0.5808 0 0.8804-0.7156 0.4826-1.1085-0.5168-0.5109-1.1335-0.0204-1.1335 0.3825z"/>
    <path d="m59.754 86.331c0 0.1819 0.0723 0.3588 0.1681 0.4577 0.459 0.4743 1.1586 0.1257 1.1586-0.4328 0-0.3678-0.3158-0.657-0.6537-0.6669-0.3351-0.0099-0.673 0.3045-0.673 0.642z"/>
    <path d="m65.662 54.788c0 0.2484 0.013 0.3549 0.2056 0.5453 0.4332 0.4281 1.0961 0.0212 1.0961-0.3951 0-0.2769 0.0128-0.3534-0.2057-0.5704-0.1809-0.1796-0.4501-0.2181-0.6932-0.1283-0.189 0.0697-0.4028 0.3086-0.4028 0.5485z"/>
    <path d="m55.824 47.027c0 0.3695 0.3131 0.6589 0.654 0.6667 0.3428 0.0078 0.6727-0.3057 0.6727-0.6667 0-0.3185-0.2911-0.6509-0.6008-0.6509h-0.1251c-0.313 0-0.6008 0.3224-0.6008 0.6509z"/>
    <path d="m61.732 58.718c0 1.0453 1.3017 0.8352 1.3017 0.1251v-0.1251c0-0.3145-0.3275-0.6008-0.6508-0.6008-0.3227 0-0.6509 0.2821-0.6509 0.6008z"/>
    <path d="m77.051 62.673c0-0.3234-0.2862-0.6509-0.6008-0.6509-0.31 0-0.5835 0.1244-0.68 0.4214-0.0886 0.2725-0.0345 0.5136 0.1725 0.7121 0.4279 0.4103 1.1083 0.079 1.1083-0.4826z"/>
    <path d="m71.569 68.682c0 0.6013 0.6762 0.8886 1.1114 0.4856 0.0038-0.0034 0.0094-0.0084 0.013-0.012l0.1281-0.1724c0.248-0.5329-0.224-0.9521-0.5766-0.9521-0.367 0-0.6759 0.2811-0.6759 0.6509z"/>
    <path d="m50.592 94.892c0.1553 0 0.3676-0.1185 0.4547-0.1962 0.0342-0.0306 0.1155-0.1394 0.1368-0.1886 0.2003-0.4624-0.1492-0.9421-0.5415-0.9421h-0.1252c-0.47 0-0.8316 0.6986-0.3828 1.134 0.0889 0.0862 0.2958 0.1929 0.458 0.1929z"/>
    <path d="m65.737 76.442c0 0.3134 0.2673 0.6509 0.6008 0.6509h0.1251c0.3067 0 0.6008-0.3196 0.6008-0.6259 0-0.9298-1.3267-0.8516-1.3267-0.025z"/>
    <path d="m53.871 86.281v0.1502c0 0.2795 0.2962 0.5758 0.5757 0.5758h0.1503c0.462 0 0.8095-0.7051 0.3818-1.1329-0.2234-0.2235-0.6426-0.2426-0.8896-0.0257-0.0946 0.0831-0.2182 0.2647-0.2182 0.4326z"/>
    <path d="m57.802 58.718c0 0.2907 0.1375 0.5161 0.3749 0.6263 0.4825 0.2241 0.9109-0.1334 0.9409-0.5596 0.0401-0.5694-0.6542-0.9321-1.11-0.5118-0.1007 0.093-0.2058 0.2623-0.2058 0.4451z"/>
    <path d="m77.777 64.651c0 0.2191 0.0371 0.3765 0.1927 0.5333 0.3603 0.3627 1.109 0.1918 1.109-0.5083 0-0.8477-1.3017-0.7862-1.3017-0.025z"/>
    <path d="m76.375 65.302c0.752 0 0.9046-0.9971 0.2841-1.2605-0.4259-0.1807-0.8377 0.1054-0.9076 0.4368-0.0321 0.1521-0.0257 0.2857 0.0248 0.4211 0.0778 0.209 0.327 0.4026 0.5987 0.4026z"/>
    <path d="m37.475 80.523v-0.1252c0-0.5533-0.8906-0.9083-1.2512-0.2248-0.2507 0.4755 0.2169 1.0882 0.8047 0.905 0.2099-0.0654 0.4465-0.2926 0.4465-0.555z"/>
    <path d="m55.849 76.492c0 0.369 0.2896 0.6759 0.5758 0.6759h0.1753c0.3847 0 0.837-0.6113 0.3821-1.1081-0.3675-0.4015-1.1332-0.147-1.1332 0.4322z"/>
    <path d="m55.824 80.423c0 0.396 0.2688 0.6787 0.6543 0.6845 0.2679 4e-3 0.4833-0.1328 0.5987-0.3577 0.3333-0.6495-0.5153-1.2745-1.0474-0.7722-0.0949 0.0897-0.2056 0.2704-0.2056 0.4454z"/>
    <path d="m71.569 70.609c0 0.9851 1.3268 0.8712 1.3268 0.05 0-0.3575-0.2753-0.6508-0.726-0.6508-0.2936 0-0.6008 0.3095-0.6008 0.6008z"/>
    <path d="m47.964 74.514c0 0.9911 1.3017 0.8149 1.3017 0.1251v-0.1752c0-0.4082-0.636-0.8175-1.1084-0.3824-0.0894 0.0825-0.1933 0.2706-0.1933 0.4325z"/>
    <path d="m53.871 48.904v0.1752c0 0.2782 0.2852 0.5758 0.7009 0.5758 0.2847 0 0.6008-0.3137 0.6008-0.6008v-0.1252c0-0.3143-0.3353-0.6009-0.6509-0.6009-0.3079 0-0.6508 0.2778-0.6508 0.5759z"/>
    <path d="m51.894 86.356c0 0.1911 0.0689 0.3304 0.168 0.4328 0.6423 0.6634 1.5596-0.2753 0.9658-0.8908-0.4339-0.4497-1.1338-0.1058-1.1338 0.458z"/>
    <path d="m57.802 86.331c0 0.3953 0.2712 0.6759 0.5757 0.6759 0.2992 0 0.5491-0.087 0.6767-0.3747 0.1031-0.2327 0.0583-0.5534-0.1448-0.758-0.3644-0.3671-1.1076-0.1482-1.1076 0.4568z"/>
    <path d="m59.729 66.654c0 0.3192 0.2859 0.651 0.6008 0.651h0.1252c0.3137 0 0.6008-0.3241 0.6008-0.651 0-0.3301-0.2777-0.6508-0.6008-0.6508h-0.1252c-0.3229 0-0.6008 0.3231-0.6008 0.6508z"/>
    <path d="m47.964 92.214c0 0.7471 0.8738 0.9363 1.2265 0.3754 0.0901-0.1436 0.0752-0.2558 0.0752-0.4255 0-0.2943-0.3242-0.5758-0.6759-0.5758-0.3161 0-0.6258 0.3097-0.6258 0.6259z"/>
    <path d="m63.784 56.79c0 0.7269 1.002 0.8773 1.2553 0.2791 0.2167-0.5117-0.1562-0.9301-0.5544-0.9301h-0.1252c-0.3102 0-0.5757 0.3328-0.5757 0.651z"/>
    <path d="m57.776 62.698c0 0.2258 0.0231 0.3723 0.2055 0.5455 0.4564 0.4336 1.0961-0.0199 1.0961-0.3702 0-0.2906 0.0204-0.3712-0.2056-0.5955-0.4145-0.4109-1.096-0.0551-1.096 0.4202z"/>
    <path d="m55.799 60.796c0 0.5588 0.6898 0.8749 1.1212 0.4705 0.4259-0.3993 0.1257-1.1214-0.3953-1.1214h-0.1251c-0.3226 0-0.6008 0.3189-0.6008 0.6509z"/>
    <path d="m34.196 52.91c0 0.6124 0.6876 0.885 1.1197 0.4938 0.2213-0.2005 0.3101-0.6301 0.0136-0.9263-0.4415-0.4409-1.1333-0.1174-1.1333 0.4325z"/>
    <path d="m50.517 39.817h0.1252c0.5492 0 0.9111-0.8912 0.2247-1.2511-0.575-0.3014-1.2406 0.4154-0.7908 1.0163 0.0793 0.106 0.2672 0.2348 0.4409 0.2348z"/>
    <path d="m67.814 64.626c0 0.1749 0.0755 0.3374 0.1681 0.4328 0.2123 0.2186 0.2872 0.2182 0.5578 0.2182 0.3386 0 0.7288-0.4104 0.5485-0.899-0.2346-0.6358-1.2744-0.4955-1.2744 0.248z"/>
    <path d="m63.784 60.721c0 0.3424 0.3003 0.6508 0.6008 0.6508 0.2257 0 0.3722-0.0232 0.5454-0.2055 0.2303-0.2425 0.2432-0.6491-0.0127-0.9031-0.4515-0.4481-1.1335-0.1029-1.1335 0.4578z"/>
    <path d="m60.43 77.093c0.3428 0 0.4865-0.0569 0.6565-0.3449 0.1313-0.2223 0.0875-0.5374-0.0954-0.7419-0.3869-0.4324-1.119-0.1898-1.1549 0.4158-0.0189 0.3196 0.2759 0.671 0.5938 0.671z"/>
    <path d="m44.034 52.86v0.1252c0 0.7095 1.2151 0.875 1.3139-0.0135 0.0363-0.3268-0.2577-0.6875-0.5879-0.6875h-0.1503c-0.2889 0-0.5757 0.2959-0.5757 0.5758z"/>
    <path d="m47.964 48.954c0 0.4331 0.2679 0.701 0.7009 0.701 0.2804 0 0.6008-0.2939 0.6008-0.5758v-0.1752c0-0.2981-0.3429-0.5759-0.6509-0.5759-0.3294 0-0.6508 0.2962-0.6508 0.6259z"/>
    <path d="m53.871 84.303v0.1752c0 0.298 0.3429 0.5758 0.6508 0.5758 0.3156 0 0.6509-0.2866 0.6509-0.6009v-0.1251c0-0.3181-0.3063-0.6008-0.7009-0.6008-0.2747 0-0.6008 0.302-0.6008 0.5758z"/>
    <path d="m57.826 70.559v0.1252c0 0.3229 0.3232 0.6008 0.6509 0.6008 0.3276 0 0.6508-0.2779 0.6508-0.6008 0-0.3043-0.1023-0.5483-0.3848-0.6667-0.4625-0.1938-0.9169 0.1619-0.9169 0.5415z"/>
    <path d="m69.792 64.551v0.1503c0 0.2795 0.2962 0.5758 0.5757 0.5758h0.1502c0.5 0 0.786-0.7255 0.3926-1.1186-0.3982-0.3978-1.1185-0.1086-1.1185 0.3925z"/>
    <path d="m38.126 82.425c0 0.1919 0.0875 0.3477 0.193 0.4579 0.3876 0.4045 1.1337 0.1419 1.1337-0.4579 0-0.3136-0.2793-0.6509-0.5757-0.6509-0.2765 0-0.3537-0.0128-0.5703 0.2057-0.1064 0.1072-0.1807 0.241-0.1807 0.4452z"/>
    <path d="m45.986 82.425c0 0.333 0.2769 0.6509 0.6758 0.6509 0.3663 0 0.6508-0.2729 0.6508-0.701 0-0.2804-0.2938-0.6008-0.5757-0.6008h-0.1752c-0.2981 0-0.5757 0.3429-0.5757 0.6509z"/>
    <path d="m42.056 56.865c0 0.1489 0.0721 0.3306 0.1805 0.4453 0.5809 0.6153 1.5732-0.2439 0.9561-0.9061-0.2436-0.2615-0.6494-0.2847-0.9309-0.0093-0.0679 0.0665-0.0982 0.0891-0.1394 0.1861-0.0225 0.0531-0.0663 0.2238-0.0663 0.284z"/>
    <path d="m73.722 72.437c0 0.2242 0.0241 0.375 0.2052 0.5458 0.405 0.3822 1.0964 0.063 1.0964-0.4206 0-0.2316 0.0021-0.3439-0.1893-0.5367-0.4191-0.4221-1.1123-0.0837-1.1123 0.4115z"/>
    <path d="m53.846 66.604c0 0.264 0.0018 0.3733 0.193 0.5579 0.4697 0.4533 1.1086 0.0259 1.1086-0.4078v-0.1251c0-0.299-0.2984-0.6009-0.6758-0.6009-0.2872 0-0.6258 0.29-0.6258 0.5759z"/>
    <path d="m55.824 82.425c0 0.592 0.7255 0.8657 1.134 0.4582 0.4223-0.4213 0.0613-1.1091-0.383-1.1091-0.2765 0-0.3536-0.0128-0.5703 0.2057-0.1064 0.1072-0.1807 0.241-0.1807 0.4452z"/>
    <path d="m63.684 50.957c0 0.308 0.2777 0.6509 0.5757 0.6509 0.2765 0 0.3536 0.0128 0.5703-0.2058 0.6041-0.6092-0.3703-1.5105-0.9532-0.9031-0.0937 0.0975-0.1928 0.2775-0.1928 0.458z"/>
    <path d="m50.542 79.146c0.2303 0 0.3568-0.044 0.4953-0.1806 0.6194-0.6113-0.2814-1.5567-0.9032-0.9533-0.4409 0.4277-0.1081 1.1339 0.4079 1.1339z"/>
    <path d="m67.664 70.559v0.1252c0 0.7491 1.3017 0.8514 1.3017-0.0751 0-0.4412-0.4247-0.764-0.8988-0.5985-0.1993 0.0696-0.4029 0.3118-0.4029 0.5484z"/>
    <path d="m57.826 74.49v0.1252c0 0.3228 0.3195 0.6008 0.6509 0.6008 0.328 0 0.6508-0.2801 0.6508-0.6008 0-0.2323-0.0165-0.3703-0.2059-0.5453-0.439-0.4056-1.0958-0.045-1.0958 0.4201z"/>
    <path d="m47.964 76.517c0 0.3866 0.2747 0.6391 0.632 0.6703 0.2994 0.026 0.6697-0.2755 0.6697-0.5702 0-0.2391 0.0028-0.4008-0.1961-0.5801-0.4109-0.3702-1.1056-0.1115-1.1056 0.48z"/>
    <path d="m38.126 50.932c0 0.3527 0.2693 0.676 0.5757 0.676h0.1753c0.2943 0 0.5757-0.3242 0.5757-0.676 0-0.3306-0.2857-0.6258-0.7009-0.6258-0.3202 0-0.6258 0.3083-0.6258 0.6258z"/>
    <path d="m54.472 73.238c0.1352 0 0.2318 0.0037 0.3513-0.0492 0.3656-0.1622 0.5275-0.681 0.2096-1.0374-0.386-0.4324-1.1188-0.1905-1.1549 0.4156-0.0189 0.3197 0.2761 0.671 0.594 0.671z"/>
    <path d="m36.148 82.425c0 0.3333 0.2659 0.6509 0.726 0.6509 0.2905 0 0.6008-0.3102 0.6008-0.6008 0-0.1496 0.0121-0.2131-0.0601-0.3405-0.3752-0.6617-1.2667-0.346-1.2667 0.2904z"/>
    <path d="m45.986 50.957c0 0.308 0.2776 0.6509 0.5757 0.6509h0.1752c0.2944 0 0.5757-0.2891 0.5757-0.701 0-0.3114-0.2948-0.6008-0.7009-0.6008-0.3296 0-0.6257 0.3214-0.6257 0.6509z"/>
    <path d="m63.784 58.718c0 0.2348 0.0651 0.3456 0.1786 0.4723 0.4797 0.5355 1.3631 0.0264 1.0837-0.7083-0.0253-0.0666-0.0861-0.1521-0.1298-0.1957-0.4322-0.4302-1.1325-0.0855-1.1325 0.4317z"/>
    <path d="m61.732 54.813c0 0.9886 1.3017 0.8227 1.3017 0.1001 0-0.2323-0.0165-0.3703-0.2058-0.5452-0.4235-0.3912-1.0959-0.0826-1.0959 0.4451z"/>
    <path d="m53.871 78.37v0.2003c0 0.3193 0.3216 0.5758 0.6508 0.5758 0.3301 0 0.6509-0.2838 0.6509-0.6008 0-0.2983-0.0935-0.5315-0.3922-0.6592-0.2512-0.1075-0.4874-0.0708-0.6775 0.0902-0.0843 0.0714-0.232 0.2556-0.232 0.3937z"/>
    <path d="m44.034 82.35v0.1502c0 0.4621 0.7051 0.8096 1.1328 0.3819 0.0943-0.0943 0.1701-0.2618 0.1833-0.4407 0.0232-0.3142-0.2752-0.6672-0.5901-0.6672-0.3002 0-0.494 0.0499-0.6598 0.3416-0.0374 0.0658-0.0662 0.1413-0.0662 0.2342z"/>
    <path d="m50.567 96.845c0.5192 0 0.8109-0.5039 0.6162-0.9417-0.0618-0.1389-0.1802-0.2478-0.3153-0.3105-0.761-0.3533-1.3446 0.7224-0.5823 1.1832 0.0773 0.0466 0.1639 0.069 0.2814 0.069z"/>
    <path d="m47.964 41.094c0 0.411 0.2852 0.701 0.6508 0.701 0.3136 0 0.6509-0.2794 0.6509-0.5759v-0.1752c0-0.3083-0.3219-0.5758-0.6759-0.5758-0.3174 0-0.6258 0.3057-0.6258 0.6259z"/>
    <path d="m50.567 67.355c0.6097 0 0.8937-0.7205 0.4831-1.1341-0.3822-0.3851-1.1083-0.1597-1.1176 0.4616-4e-3 0.2679 0.1328 0.4833 0.3577 0.5987 0.0691 0.0355 0.1695 0.0738 0.2768 0.0738z"/>
    <path d="m49.941 70.584v0.1252c0 0.4155 0.6361 0.8196 1.0959 0.3949 0.2089-0.193 0.2638-0.4964 0.1462-0.7609-0.2682-0.6031-1.2421-0.4509-1.2421 0.2408z"/>
    <path d="m55.824 90.261c0 0.3657 0.2768 0.6759 0.6008 0.6759h0.1251c0.3145 0 0.6008-0.3275 0.6008-0.6508 0-0.3234-0.2863-0.651-0.6008-0.651h-0.1251c-0.3057 0-0.6008 0.3242-0.6008 0.6259z"/>
    <path d="m73.672 60.62c0 0.6445 0.6508 0.9057 1.1167 0.516 0.2271-0.1899 0.309-0.6186 0.0166-0.9235-0.4488-0.4682-1.1333-0.0779-1.1333 0.4075z"/>
    <path d="m47.964 46.977c0 0.6727 0.6538 0.8956 1.0811 0.5554 0.4529-0.3604 0.1759-1.1562-0.3551-1.1562-0.2318 0-0.3439-0.0021-0.5368 0.1893-0.0861 0.0856-0.1892 0.2536-0.1892 0.4115z"/>
    <path d="m34.196 50.907c0 0.4103 0.269 0.701 0.5758 0.701 0.2787 0 0.3522 0.0129 0.5704-0.2057 0.3654-0.3659 0.1333-1.0961-0.4953-1.0961-0.3301 0-0.6509 0.2838-0.6509 0.6008z"/>
    <path d="m61.807 80.347c0 0.6181 0.6918 0.9103 1.1085 0.5079 0.4109-0.3965 0.2171-1.1337-0.5077-1.1337-0.3032 0-0.6008 0.3193-0.6008 0.6258z"/>
    <path d="m51.243 54.888c0-0.7086-1.0031-0.9116-1.2676-0.2414-0.0993 0.2517-0.0367 0.5346 0.1588 0.7244 0.4064 0.3942 1.1088 0.118 1.1088-0.483z"/>
    <path d="m55.173 88.383v-0.1251c0-0.3104-0.3321-0.6009-0.6509-0.6009-0.563 0-0.8781 0.6837-0.4948 1.0958 0.1706 0.1834 0.3802 0.2845 0.705 0.191 0.2059-0.0594 0.4407-0.3126 0.4407-0.5608z"/>
    <path d="m55.799 64.726c0 0.3433 0.3036 0.651 0.6008 0.651h0.1251c0.2972 0 0.6008-0.3077 0.6008-0.651 0-0.3284-0.2878-0.6508-0.6008-0.6508-0.2329 0-0.3668 4e-3 -0.5571 0.2189-0.0947 0.107-0.1688 0.2387-0.1688 0.4319z"/>
    <path d="m69.617 68.656c0 0.352 0.3299 0.6509 0.5506 0.6509 0.2364 0 0.3992 0.0023 0.5955-0.2057 0.4097-0.4338 0.0442-1.0961-0.4203-1.0961h-0.1251c-0.3184 0-0.6007 0.3222-0.6007 0.6509z"/>
    <path d="m63.784 74.414v0.1251c0 0.323 0.3231 0.6008 0.6508 0.6008 0.3278 0 0.6509-0.2778 0.6509-0.6008 0-0.3042-0.1023-0.5483-0.3847-0.6666-0.4628-0.1938-0.917 0.1675-0.917 0.5415z"/>
    <path d="m45.986 72.587c0 0.3183 0.2826 0.6508 0.6007 0.6508 0.2362 0 0.355-8e-3 0.5364-0.1895 0.6074-0.608-0.326-1.5336-0.9445-0.9195-0.0892 0.0885-0.1926 0.291-0.1926 0.4582z"/>
    <path d="m51.894 43.096c0 0.6235 0.7389 0.8509 1.1338 0.458 0.4985-0.4959-0.0621-1.362-0.7741-1.0495-0.0859 0.0378-0.119 0.086-0.1789 0.1465-0.11 0.1115-0.1808 0.2317-0.1808 0.445z"/>
    <path d="m57.826 68.631c0 0.3922 0.2694 0.676 0.5758 0.676h0.1501c0.5858 0 0.8191-0.9306 0.2494-1.2258-0.2642-0.1369-0.6003-0.0901-0.7947 0.1046-0.0987 0.0989-0.1806 0.2535-0.1806 0.4452z"/>
    <path d="m73.722 64.576c0 0.197 0.0249 0.3772 0.1819 0.5189 0.4646 0.4195 1.1197 0.0614 1.1197-0.3937v-0.1503c0-0.2939-0.3035-0.5757-0.6007-0.5757-0.2107 0-0.379 0.027-0.5327 0.1933-0.0767 0.0833-0.1682 0.2577-0.1682 0.4075z"/>
    <path d="m47.964 84.378c0 0.3989 0.3178 0.6759 0.6508 0.6759 0.308 0 0.6509-0.2778 0.6509-0.5758v-0.1752c0-0.2753-0.2909-0.5758-0.6509-0.5758-0.3555 0-0.6508 0.2925-0.6508 0.6509z"/>
    <path d="m47.964 86.306c0 0.2516 0.0632 0.4192 0.2566 0.5696 0.0276 0.0216 0.0583 0.044 0.0878 0.0623 0.2092 0.1295 0.5658 0.0833 0.7638-0.0993 0.4291-0.3956 0.1313-1.1725-0.4761-1.1455-0.3748 0.0167-0.6321 0.3295-0.6321 0.6129z"/>
    <path d="m44.034 56.79c0 0.2517 0.0113 0.347 0.1808 0.5201 0.2537 0.2594 0.5721 0.268 0.8669 0.0769 0.2781-0.1802 0.3773-0.6782 0.0862-0.98-0.4506-0.467-1.1339-0.0687-1.1339 0.383z"/>
    <path d="m60.43 73.163c0.2486 0 0.3171 0.0037 0.5263-0.1747 0.3377-0.2879 0.3124-1.1271-0.5263-1.1271-0.317 0-0.5946 0.3414-0.5946 0.651 0 0.3095 0.2776 0.6508 0.5946 0.6508z"/>
    <path d="m67.664 54.838c0 0.8248 1.3267 0.9046 1.3267-0.0249 0-0.3064-0.2942-0.6259-0.6007-0.6259-0.2554 0-0.3527 0.0115-0.5453 0.2057-0.1044 0.1052-0.1807 0.2854-0.1807 0.4451z"/>
    <path d="m57.776 64.626c0 0.2157 0.0154 0.3852 0.1817 0.5693 0.3363 0.3724 1.1199 0.1435 1.1199-0.394 0-0.3002-0.0498-0.4939-0.3416-0.6598-0.4086-0.2324-0.96 0.118-0.96 0.4845z"/>
    <path d="m45.986 68.656c0 0.3184 0.2911 0.6509 0.6007 0.6509h0.1251c0.3101 0 0.6008-0.281 0.6008-0.701 0-0.2906-0.3102-0.6008-0.6008-0.6008h-0.1251c-0.3142 0-0.6007 0.3353-0.6007 0.6509z"/>
    <path d="m54.522 45.725c0.3192 0 0.6509-0.2858 0.6509-0.6009 0-0.31-0.1245-0.5835-0.4214-0.6801-0.2724-0.0886-0.5136-0.0345-0.712 0.1726-0.3987 0.4158-0.0884 1.1084 0.4825 1.1084z"/>
    <path d="m45.986 64.726c0 0.3157 0.2865 0.651 0.6007 0.651h0.1251c0.3047 0 0.6008-0.2791 0.6008-0.701 0-0.2912-0.3071-0.6008-0.6008-0.6008h-0.1251c-0.3096 0-0.6007 0.3324-0.6007 0.6508z"/>
    <path d="m67.764 62.623c0 0.5047 0.6546 0.938 1.1207 0.4697 0.6472-0.6502-0.3318-1.5199-0.928-0.928-0.0856 0.0851-0.1927 0.3-0.1927 0.4583z"/>
    <path d="m40.104 74.49v0.1252c0 0.7101 1.3017 0.92 1.3017-0.1252 0-0.4438-0.6456-0.836-1.0958-0.4201-0.0975 0.0901-0.2059 0.2432-0.2059 0.4201z"/>
    <path d="m55.824 50.932c0 0.3527 0.2693 0.676 0.5758 0.676h0.1752c0.4305 0 0.8029-0.6619 0.3955-1.0965-0.2485-0.265-0.6839-0.2815-0.9533-0.0122-0.0954 0.0955-0.1932 0.2542-0.1932 0.4327z"/>
    <path d="m50.517 87.007c0.2233 0 0.3804-0.013 0.5611-0.2151 0.2839-0.3174 0.1971-0.8353-0.2141-1.0331-0.7106-0.3417-1.2725 0.6513-0.7018 1.1024 0.0832 0.0658 0.2137 0.1458 0.3548 0.1458z"/>
    <path d="m63.684 52.885c0 0.3432 0.3037 0.6509 0.6008 0.6509h0.1251c0.2971 0 0.6008-0.3077 0.6008-0.6509 0-0.3301-0.2839-0.6509-0.6008-0.6509h-0.1251c-0.313 0-0.6008 0.3223-0.6008 0.6509z"/>
    <path d="m67.639 66.729c0 0.8807 1.3157 0.8559 1.3143 0-3e-4 -0.1855-0.0613-0.3292-0.1683-0.445-0.2555-0.2765-0.7163-0.2823-0.9677-0.0025-0.1003 0.1117-0.1783 0.2409-0.1783 0.4475z"/>
    <path d="m59.754 52.885c0 0.6193 0.7515 0.8634 1.1461 0.4453 0.4001-0.4237 0.0561-1.0962-0.4202-1.0962-0.2483 0-0.3549 0.013-0.5452 0.2057-0.0987 0.0999-0.1807 0.258-0.1807 0.4452z"/>
    <path d="m47.964 54.838c0 0.3063 0.1081 0.5275 0.3749 0.6515 0.5052 0.2346 0.9268-0.2011 0.9268-0.5012 0-0.2331 0.0023-0.4306-0.2097-0.5914-0.5374-0.4073-1.092 0.0442-1.092 0.4411z"/>
    <path d="m36.148 50.932c0 0.3308 0.2864 0.676 0.5758 0.676 0.3135 0 0.4916-0.023 0.6815-0.345 0.1836-0.3114 0.0356-0.9568-0.6314-0.9568-0.3713 0-0.6259 0.3892-0.6259 0.6258z"/>
    <path d="m65.762 62.598c0 0.4646 0.31 0.6759 0.726 0.6759 0.3171 0 0.5946-0.3413 0.5946-0.6508 0-0.3097-0.2775-0.651-0.5946-0.651-0.2289 0-0.3943 0.0165-0.5549 0.1962-0.0222 0.025-0.107 0.1533-0.1203 0.1799-0.0321 0.0643-0.0508 0.1519-0.0508 0.2498z"/>
    <path d="m51.894 90.286c0 0.6101 0.7411 0.8652 1.1338 0.458 0.246-0.2549 0.2527-0.6646 0-0.916-0.3949-0.3929-1.1338-0.1655-1.1338 0.458z"/>
    <path d="m45.986 80.448c0 0.192 0.0937 0.3538 0.1932 0.4575 0.2613 0.2726 0.6327 0.2628 0.9093 0.0444 0.2694-0.2127 0.3112-0.6634 0.0436-0.9472-0.1955-0.2075-0.4782-0.2548-0.7434-0.1533-0.0555 0.0213-0.1479 0.0865-0.1957 0.1298-0.092 0.0833-0.207 0.2998-0.207 0.4688z"/>
    <path d="m57.776 66.629v0.1251c0 0.4272 0.6172 0.8445 1.0828 0.432 0.4488-0.3974 0.1894-1.158-0.457-1.158-0.3025 0-0.6258 0.2994-0.6258 0.6009z"/>
    <path d="m51.894 82.425c0 0.696 0.9597 0.9057 1.2521 0.2759 0.2284-0.4918-0.1578-0.9268-0.5512-0.9268-0.2187 0-0.3785 0.0272-0.5298 0.1962-0.0924 0.1031-0.1711 0.264-0.1711 0.4547z"/>
    <path d="m51.894 52.91c0 0.6049 0.6822 0.8897 1.1196 0.4938 0.3985-0.3608 0.1641-1.1197-0.4187-1.1197h-0.1252c-0.3049 0-0.5757 0.3118-0.5757 0.6259z"/>
    <path d="m53.871 56.74v0.2003c0 0.3043 0.2914 0.5759 0.7009 0.5759 0.2906 0 0.6008-0.3103 0.6008-0.6008 0-0.2012-0.0309-0.3944-0.2068-0.5443-0.1015-0.0867-0.2686-0.1656-0.4238-0.1748-0.3416-0.02-0.6711 0.3086-0.6711 0.5437z"/>
    <path d="m61.707 64.676c0 0.4966 0.4548 0.7876 0.8988 0.6236 0.6334-0.2336 0.5025-1.2745-0.2481-1.2745-0.3398 0-0.6507 0.2745-0.6507 0.6509z"/>
    <path d="m59.754 50.957c0 0.3129 0.269 0.6509 0.5757 0.6509 0.277 0 0.3534 0.0129 0.5703-0.2058 0.2435-0.2451 0.235-0.6417 1e-4 -0.8904-0.3355-0.3555-0.9179-0.2237-1.0867 0.1792-0.0192 0.0455-0.0594 0.2169-0.0594 0.2661z"/>
    <path d="m51.243 88.358c0-0.9858-1.4255-0.8849-1.3023 0.0737 0.0302 0.235 0.2354 0.4666 0.4577 0.5207 0.1567 0.0381 0.2922 0.0282 0.4232-0.0144 0.2047-0.0666 0.4214-0.3184 0.4214-0.58z"/>
    <path d="m50.542 57.516c0.4281 0 0.7009-0.2847 0.7009-0.651 0-0.3185-0.167-0.4903-0.3762-0.6-0.3478-0.1824-0.8088 0.0222-0.9103 0.4156-0.0374 0.1444-0.0375 0.2682 0.0118 0.4077 0.0844 0.2384 0.3231 0.4277 0.5738 0.4277z"/>
    <path d="m76.35 69.232c0.7776 0 0.937-0.9597 0.3085-1.2598-0.4538-0.2168-1.0963 0.1983-0.8886 0.8387 0.0692 0.2134 0.3352 0.4211 0.5801 0.4211z"/>
    <path d="m63.659 66.654c0 0.3034 0.2757 0.651 0.6008 0.651h0.1252c0.71 0 0.92-1.3018-0.1252-1.3018-0.2214 0-0.4631 0.1978-0.5414 0.3847-0.0191 0.0457-0.0594 0.2169-0.0594 0.2661z"/>
    <path d="m55.173 80.548v-0.1502c0-0.317-0.3208-0.6008-0.6509-0.6008-0.7721 0-0.8956 1.0826-0.2044 1.2812 0.4989 0.1432 0.8553-0.2657 0.8553-0.5302z"/>
    <path d="m53.871 54.813c0 0.2264-0.0145 0.3744 0.2188 0.5822 0.3573 0.3184 1.0829 0.1755 1.0829-0.5573 0-0.5474-0.8529-0.8824-1.2262-0.2749-0.0387 0.063-0.0755 0.1482-0.0755 0.25z"/>
    <path d="m44.034 50.882v0.1501c0 0.2796 0.2962 0.5759 0.5757 0.5759 0.2375 0 0.3907-0.0126 0.5576-0.1935 0.0897-0.0971 0.1882-0.2937 0.1842-0.4542-0.0164-0.6617-0.8697-0.9214-1.2484-0.3096-0.041 0.0662-0.0691 0.1311-0.0691 0.2313z"/>
    <path d="m59.754 54.838c0 0.1893 0.0809 0.3714 0.1807 0.4702 0.3701 0.3664 0.9036 0.1909 1.0717-0.1689 0.1731-0.3705-0.0204-0.7485-0.3002-0.8779-0.4834-0.2234-0.9522 0.1446-0.9522 0.5766z"/>
    <path d="m47.964 37.188c0 0.2737 0.1387 0.4968 0.375 0.6012 0.5362 0.2367 0.9267-0.219 0.9267-0.5011v-0.1752c0-0.3068-0.2907-0.5759-0.7009-0.5759-0.317 0-0.6008 0.3209-0.6008 0.651z"/>
    <path d="m71.72 60.57v0.1752c0 0.4681 0.6721 0.7955 1.096 0.3953 0.2732-0.2579 0.2724-0.7132 0.0122-0.9529-0.1034-0.0952-0.2547-0.1692-0.4409-0.1826-0.1757-0.0127-0.3481 0.0592-0.4492 0.1573-0.1001 0.0973-0.2181 0.2221-0.2181 0.4077z"/>
    <path d="m61.732 48.93v0.1252c0 0.3019 0.2808 0.6008 0.7009 0.6008 0.2906 0 0.6008-0.3102 0.6008-0.6008v-0.1252c0-0.3143-0.332-0.6009-0.6508-0.6009-0.3146 0-0.6509 0.2899-0.6509 0.6009z"/>
    <path d="m51.894 50.957c0 0.3532 0.2854 0.6509 0.5757 0.6509 0.2575 0 0.3668 0.012 0.5702-0.2059 0.3923-0.4202 0.0838-1.0959-0.4951-1.0959-0.3614 0-0.6508 0.2894-0.6508 0.6509z"/>
    <path d="m53.846 62.673c0 0.2643-9e-4 0.3654 0.2056 0.5704 0.0612 0.0607 0.088 0.0863 0.1789 0.1214 0.2644 0.102 0.5289 0.0516 0.7119-0.121 0.4238-0.4 0.1606-1.1466-0.4456-1.1466-0.3344 0-0.6508 0.2961-0.6508 0.5758z"/>
    <path d="m47.964 56.815c0 0.6585 0.6643 0.8891 1.092 0.5413 0.2099-0.1708 0.2097-0.3531 0.2097-0.5914 0-0.3023-0.3653-0.5867-0.6711-0.5688-0.3289 0.0194-0.6306 0.2889-0.6306 0.6189z"/>
    <path d="m73.722 66.528c0 0.2485 0.013 0.355 0.2056 0.5454 0.2407 0.2379 0.6462 0.2373 0.8779 0.0126 0.057-0.0554 0.098-0.0933 0.1386-0.1618 0.2944-0.4957-0.1874-1.1779-0.8194-0.9447-0.1889 0.0697-0.4027 0.3086-0.4027 0.5485z"/>
    <path d="m47.964 45.024c0 0.7235 0.853 0.9512 1.2227 0.3717 0.0978-0.1534 0.079-0.227 0.079-0.4217 0-0.4326-0.6727-0.8191-1.1089-0.3829-0.0894 0.0895-0.1928 0.2657-0.1928 0.4329z"/>
    <path d="m65.662 52.835c0 0.411 0.2748 0.701 0.5757 0.701 0.2312 0 0.338 0.0041 0.5439-0.182 0.2386-0.2158 0.2506-0.6693 0.0137-0.9264-0.3699-0.4015-1.1333-0.1559-1.1333 0.4074z"/>
    <path d="m51.243 47.027c0-0.2252-0.0976-0.391-0.2425-0.5085-0.6374-0.5177-1.4788 0.4006-0.8664 0.9915 0.4056 0.3913 1.1089 0.0987 1.1089-0.483z"/>
    <path d="m57.802 78.42c0 0.1515-0.0059 0.2175 0.0593 0.3661 0.1463 0.3332 0.7536 0.5609 1.1111 0.1034 0.3367-0.4307 0.0019-1.0704-0.5196-1.0704-0.1436 0-0.3647 0.1061-0.4453 0.1805-0.0968 0.0896-0.2055 0.2442-0.2055 0.4204z"/>
    <path d="m54.472 69.307c0.2527 0 0.3987-0.015 0.5836-0.2425 0.2948-0.3628 0.1711-1.0593-0.5836-1.0593-0.5189 0-0.8912 0.8312-0.25 1.2262 0.0629 0.0387 0.1484 0.0756 0.25 0.0756z"/>
    <path d="m42.056 52.935c0 0.1621 0.0948 0.3547 0.1805 0.4454 0.4245 0.4494 1.1462 0.1008 1.1462-0.4203 0-0.6146-0.7021-0.9136-1.1207-0.4949-0.1213 0.1213-0.206 0.2796-0.206 0.4698z"/>
    <path d="m51.243 80.498c0-0.4239-0.2884-0.701-0.6508-0.701-0.8313 0-0.8401 1.1481-0.1897 1.2919 0.4722 0.1044 0.8405-0.2263 0.8405-0.5909z"/>
    <path d="m65.762 60.596c0 0.2983 0.1118 0.5522 0.3849 0.6666 0.6677 0.2797 1.2345-0.5443 0.7485-1.0491-0.4704-0.4886-1.1334-0.0598-1.1334 0.3825z"/>
    <path d="m69.692 58.643c0 0.9238 1.253 0.9274 1.3208 0.0687 0.0261-0.3299-0.2822-0.6695-0.5948-0.6695-0.2391 0-0.3492 0.0102-0.5396 0.1864-0.084 0.0777-0.1864 0.2658-0.1864 0.4144z"/>
    <path d="m61.707 68.606c0 0.4075 0.3019 0.6759 0.6758 0.6759 0.3062 0 0.6258-0.2942 0.6258-0.6008v-0.1252c0-0.4356-0.6366-0.8601-1.1087-0.4077-0.1121 0.1073-0.1929 0.2489-0.1929 0.4578z"/>
    <path d="m57.776 60.721v0.1251c0 0.4939 0.6789 0.8193 1.1054 0.4296 0.3973-0.363 0.1614-1.1306-0.3795-1.1306h-0.1502c-0.2795 0-0.5757 0.2963-0.5757 0.5759z"/>
    <path d="m57.802 48.93v0.1252c0 0.3046 0.279 0.6008 0.7009 0.6008 0.2847 0 0.6008-0.3137 0.6008-0.6008v-0.1252c0-0.311-0.3363-0.6009-0.6509-0.6009-0.3188 0-0.6508 0.2866-0.6508 0.6009z"/>
    <path d="m61.732 84.328v0.1251c0 0.3111 0.3363 0.6009 0.6509 0.6009 0.3188 0 0.6508-0.2866 0.6508-0.6009v-0.1251c0-0.3046-0.279-0.6008-0.7009-0.6008-0.2847 0-0.6008 0.3137-0.6008 0.6008z"/>
    <path d="m57.802 84.328v0.1251c0 0.3143 0.332 0.6009 0.6508 0.6009 0.3146 0 0.6509-0.2898 0.6509-0.6009v-0.1251c0-0.2955-0.2787-0.6008-0.7009-0.6008-0.2906 0-0.6008 0.3102-0.6008 0.6008z"/>
    <path d="m45.986 60.796c0 0.5768 0.7296 0.8657 1.1212 0.4706 0.4705-0.4747 0.0573-1.1215-0.3954-1.1215h-0.1251c-0.3143 0-0.6007 0.3321-0.6007 0.6509z"/>
    <path d="m55.824 43.096c0 0.1914 0.0877 0.3486 0.1931 0.4578 0.4034 0.4181 1.1336 0.122 1.1336-0.4578 0-0.3234-0.2863-0.6509-0.6008-0.6509h-0.1251c-0.3228 0-0.6008 0.3196-0.6008 0.6509z"/>
    <path d="m77.752 68.481c0 0.6215 0.6385 0.9012 1.0881 0.5375 0.2145-0.1734 0.2136-0.368 0.2136-0.5876 0-0.4598-0.6836-0.7852-1.0964-0.3954-0.0943 0.0889-0.2053 0.2715-0.2053 0.4455z"/>
    <path d="m47.964 72.537c0 0.205 0.0463 0.3694 0.1818 0.5193 0.3443 0.3807 1.1199 0.134 1.1199-0.369 0-0.231 0.0039-0.4131-0.1958-0.5803-0.4838-0.4054-1.1059-0.0262-1.1059 0.43z"/>
    <path d="m50.567 90.937c0.129 0 0.1904-0.0041 0.316-0.0593 0.1633-0.0718 0.3598-0.3139 0.3598-0.5915 0-0.8698-1.3229-0.8632-1.3105-0.0038 0.0053 0.3742 0.2621 0.6546 0.6347 0.6546z"/>
    <path d="m57.802 44.999c0 0.2483 0.013 0.3549 0.2057 0.5453 0.243 0.2402 0.6473 0.2402 0.8903 0 0.3715-0.3671 0.2092-0.9241-0.1791-1.0869-0.4657-0.195-0.9169 0.1659-0.9169 0.5416z"/>
    <path d="m63.784 64.651c0 0.8759 1.3267 0.8347 1.3267 0 0-0.1538-0.0724-0.3277-0.1808-0.445-0.3853-0.4173-1.1459-0.1778-1.1459 0.445z"/>
    <path d="m36.824 53.586c0.3301 0 0.6509-0.2838 0.6509-0.6008 0-0.3249-0.1143-0.5631-0.4277-0.674-0.2509-0.0888-0.5228-0.0232-0.7062 0.1659-0.3961 0.4083-0.1013 1.1089 0.483 1.1089z"/>
    <path d="m77.752 66.579c0 0.6972 0.7465 0.86 1.0835 0.5328 0.2293-0.2225 0.2182-0.3 0.2182-0.5829 0-0.4316-0.647-0.8094-1.0958-0.3949-0.1007 0.093-0.2059 0.2621-0.2059 0.445z"/>
    <path d="m47.964 94.166c0 0.3036 0.1103 0.5286 0.3749 0.6515 0.2696 0.1253 0.4902 0.0757 0.7062-0.096 0.3733-0.2967 0.3313-1.1563-0.4803-1.1563-0.2906 0-0.6008 0.3102-0.6008 0.6008z"/>
    <path d="m49.941 62.673c0 0.295-2e-3 0.3617 0.1935 0.5575 0.259 0.2594 0.6468 0.2449 0.9011 0.0114 0.4308-0.3956 0.1469-1.1447-0.4437-1.1447-0.3168 0-0.6509 0.2691-0.6509 0.5758z"/>
    <path d="m69.617 72.587c0 0.3299 0.2767 0.6508 0.6007 0.6508h0.1251c0.3146 0 0.6008-0.3275 0.6008-0.6508 0-0.3805-0.294-0.651-0.7259-0.651-0.3137 0-0.6007 0.3241-0.6007 0.651z"/>
    <path d="m65.687 68.631c0 0.3627 0.2707 0.676 0.6258 0.676 0.973 0 0.8257-1.3018 0.1001-1.3018h-0.1252c-0.3031 0-0.6007 0.3193-0.6007 0.6258z"/>
    <path d="m51.869 64.726c0 0.1873 0.082 0.3455 0.1806 0.4453 0.282 0.2853 0.7078 0.2731 0.9656 1e-4 0.4001-0.4238 0.0561-1.0962-0.4202-1.0962-0.2645 0-0.338-0.0032-0.5454 0.2057-0.0987 0.0995-0.1806 0.2583-0.1806 0.4451z"/>
    <path d="m42.056 82.425c0 0.5724 0.7341 0.8752 1.1336 0.4579 0.4594-0.4796 0.0085-1.1088-0.3827-1.1088-0.2769 0-0.3533-0.0129-0.5703 0.2057-0.1045 0.1051-0.1806 0.2855-0.1806 0.4452z"/>
    <path d="m50.542 75.216c0.3826 0 0.7009-0.245 0.7009-0.651 0-0.5977-0.6956-0.8777-1.1083-0.4826-0.1034 0.099-0.1359 0.1352-0.1781 0.2983-0.1238 0.4774 0.2537 0.8353 0.5855 0.8353z"/>
    <path d="m53.871 58.743c0 0.2254-0.0144 0.3757 0.2188 0.5822 0.3321 0.2942 0.815 0.1607 0.998-0.1664 0.3909-0.6988-0.5724-1.371-1.0743-0.749-0.0787 0.0974-0.1425 0.1922-0.1425 0.3332z"/>
    <path d="m47.964 43.046c0 0.2291 0.0243 0.3385 0.1934 0.5076 0.1535 0.1533 0.2178 0.1934 0.4824 0.1934 0.3753 0 0.6259-0.3399 0.6259-0.5258 0-0.2576 0.0238-0.3988-0.1928-0.6081-0.3896-0.3765-1.1089-0.0901-1.1089 0.4329z"/>
    <path d="m73.722 68.456c0 0.2259 0.0045 0.3946 0.1805 0.5704 0.3813 0.3808 1.1211 0.129 1.1211-0.3952v-0.1502c0-0.4241-0.6235-0.8187-1.1017-0.4008-0.069 0.0603-0.1999 0.2524-0.1999 0.3758z"/>
    <path d="m61.732 56.74v0.1503c0 0.2795 0.2962 0.5758 0.5758 0.5758h0.1502c0.3994 0 0.715-0.4893 0.5164-0.942-0.0378-0.0859-0.0728-0.1045-0.1344-0.166-0.1538-0.1537-0.2158-0.1938-0.4822-0.1938-0.3474 0-0.6258 0.3039-0.6258 0.5757z"/>
    <path d="m61.732 52.81c0 0.2312-0.0041 0.338 0.1821 0.544 0.2854 0.3156 1.1196 0.2791 1.1196-0.519 0-0.3133-0.2875-0.6008-0.6008-0.6008-0.2843 0-0.4797 0.0691-0.6346 0.3416-0.0374 0.0657-0.0663 0.1413-0.0663 0.2342z"/>
    <path d="m51.869 60.796c0 0.7364 1.0176 0.8704 1.2552 0.279 0.1051-0.2616 0.0915-0.5178-0.0966-0.7117-0.4537-0.4676-1.1586-0.139-1.1586 0.4327z"/>
    <path d="m53.846 64.651c0 0.2727 0.0542 0.5089 0.3263 0.65 0.2638 0.1366 0.6019 0.0914 0.7892-0.1102 0.4082-0.439 0.09-1.1156-0.3896-1.1156h-0.1502c-0.2795 0-0.5757 0.2963-0.5757 0.5758z"/>
    <path d="m47.964 62.723c0 0.6898 0.7432 0.8632 1.0835 0.5328 0.2292-0.2225 0.2182-0.3001 0.2182-0.5829 0-0.4316-0.6471-0.8095-1.0959-0.395-0.1007 0.0931-0.2058 0.262-0.2058 0.4451z"/>
    <path d="m40.104 80.398c0 0.2332 0.0164 0.3692 0.2059 0.5452 0.3376 0.314 1.0958 0.2105 1.0958-0.5201 0-0.5374-0.6885-0.8472-1.0957-0.445-0.1074 0.1061-0.206 0.2123-0.206 0.4199z"/>
    <path d="m61.757 70.559c0 0.2267 0.0025 0.3597 0.202 0.549 0.3899 0.3702 1.0687 0.1287 1.1067-0.4396 0.0214-0.3186-0.2232-0.6852-0.5828-0.6852h-0.1502c-0.2889 0-0.5757 0.2959-0.5757 0.5758z"/>
    <path d="m47.964 98.097c0 0.4645 0.2776 0.675 0.5764 0.701h0.1298c0.3059-0.0262 0.5955-0.2344 0.5955-0.5508 0-0.2398 0.0038-0.422-0.2099-0.5911-0.5057-0.4007-1.0918 0.0233-1.0918 0.4409z"/>
    <path d="m67.664 74.49c0 0.2664 0.0059 0.3449 0.181 0.5199 0.6541 0.6538 1.5221-0.3574 0.9279-0.9279-0.4424-0.4246-1.1089-0.0613-1.1089 0.408z"/>
    <path d="m47.964 78.445c0 0.62 0.6016 0.8919 1.0772 0.5517 0.2801-0.2004 0.3296-0.7063 0.0187-0.9967-0.2579-0.2407-0.6199-0.2277-0.8893 8e-4 -0.0902 0.0765-0.2066 0.2851-0.2066 0.4442z"/>
    <path d="m57.802 82.35c0 0.2018 0.0246 0.4023 0.1817 0.5442 0.6498 0.587 1.5069-0.3242 0.9516-0.9266-0.3638-0.3946-1.1333-0.1556-1.1333 0.3824z"/>
    <path d="m50.592 59.494c0.1588 0 0.373-0.1098 0.4568-0.1942 0.3862-0.3888 0.1873-1.1327-0.5069-1.1327-0.152 0-0.3672 0.122-0.4409 0.21-0.2258 0.27-0.2329 0.6635 0.0209 0.9111 0.0545 0.0533 0.112 0.1035 0.1867 0.1386 0.0489 0.0231 0.2249 0.0672 0.2834 0.0672z"/>
    <path d="m47.964 70.584c0 0.6381 0.6523 0.891 1.0881 0.5374 0.2145-0.1739 0.2136-0.3675 0.2136-0.5875 0-0.1808-0.1102-0.3004-0.2057-0.3951-0.393-0.3902-1.096-0.0781-1.096 0.4452z"/>
    <path d="m55.849 72.562c0 0.3798 0.2987 0.6759 0.6008 0.6759 0.2322 0 0.3703-0.0165 0.5451-0.2058 0.0434-0.047 0.0944-0.1141 0.1215-0.179 0.2852-0.6805-0.5684-1.223-1.0617-0.7363-0.1137 0.1122-0.2057 0.268-0.2057 0.4452z"/>
    <path d="m57.802 88.258c0 0.2979 0.1083 0.5602 0.3846 0.6667 0.1831 0.0708 0.3319 0.0743 0.5143 7e-3 0.0691-0.0255 0.1414-0.0772 0.1969-0.1286 0.2782-0.257 0.282-0.6868 2e-4 -0.9653-0.4247-0.4198-1.096-0.0419-1.096 0.4202z"/>
    <path d="m51.894 47.027c0 0.3656 0.3152 0.6642 0.6507 0.6635 0.5571-1e-3 0.887-0.6947 0.4957-1.1091-0.4124-0.4368-1.1464-0.1512-1.1464 0.4456z"/>
    <path d="m61.807 76.417c0 0.4333 0.2848 0.6759 0.7258 0.6759 0.3193 0 0.6166-0.3355 0.598-0.6727-0.0337-0.612-0.7569-0.8133-1.1184-0.4487-0.095 0.0957-0.2054 0.2647-0.2054 0.4455z"/>
    <path d="m44.034 80.398v0.1252c0 0.2805 0.2915 0.5758 0.5757 0.5758 0.2711 0 0.3844-5e-3 0.5705-0.2056 0.3668-0.3952 0.1054-1.0962-0.5204-1.0962-0.3062 0-0.6258 0.2942-0.6258 0.6008z"/>
    <path d="m61.732 50.932c0 0.2115 0.0401 0.3326 0.1567 0.4692 0.3565 0.4177 1.145 0.1723 1.145-0.3691 0-0.2138-0.0188-0.3785-0.1832-0.5427-0.389-0.3888-1.1185-0.1239-1.1185 0.4426z"/>
    <path d="m50.492 51.608c0.2178 0 0.3922 8e-3 0.5795-0.1964 0.3445-0.3762 0.1714-1.1054-0.5295-1.1054-0.3134 0-0.5925 0.2654-0.609 0.6361-0.0152 0.344 0.2677 0.6657 0.559 0.6657z"/>
    <path d="m71.569 74.59c0 0.3382 0.2954 0.6508 0.5758 0.6508 0.2263 0 0.3744 0.0146 0.5823-0.2187 0.331-0.3716 0.1648-1.083-0.5573-1.083-0.313 0-0.6008 0.3223-0.6008 0.6509z"/>
    <path d="m57.802 56.79c0 0.5201 0.6215 0.8859 1.106 0.4801 0.1094-0.0916 0.1868-0.2543 0.2076-0.4436 0.0379-0.3436-0.2545-0.6875-0.5877-0.6875-0.2299 0-0.393 0.0164-0.5549 0.1961-0.0854 0.0947-0.171 0.2774-0.171 0.4549z"/>
    <path d="m65.662 66.729c0 0.1507 0.1027 0.3634 0.1803 0.4457 0.3707 0.3928 1.1464 0.229 1.1464-0.4957 0-0.2913-0.3071-0.6009-0.6007-0.6009-0.2313 0-0.3714 0.0171-0.5454 0.2056-0.0785 0.085-0.1806 0.292-0.1806 0.4453z"/>
    <path d="m57.802 54.838c0 0.2314 0.017 0.3715 0.2055 0.5456 0.5394 0.4981 1.3462-0.1539 1.0343-0.7841-0.0094-0.0191-0.047-0.0765-0.0585-0.0918l-0.0816-0.0935c-0.237-0.2249-0.6334-0.2531-0.8938 4e-3 -0.1074 0.106-0.2059 0.2123-0.2059 0.4198z"/>
    <path d="m63.784 80.322c0 0.98 1.3017 0.9278 1.3017 0.0249 0-0.2277-0.1043-0.3807-0.2563-0.4947-0.4493-0.3371-1.0454 0.0162-1.0454 0.4698z"/>
    <path d="m65.762 56.715c0 0.2108 0.0132 0.3875 0.1963 0.5547 0.433 0.3956 1.1054 0.0448 1.1054-0.4296v-0.1251c0-0.2796-0.2962-0.5759-0.5757-0.5759h-0.1502c-0.2894 0-0.5758 0.2893-0.5758 0.5759z"/>
    <path d="m67.664 68.581c0 1.0552 1.3017 0.8495 1.3017 0.1252 0-0.9935-1.3017-0.837-1.3017-0.1252z"/>
    <path d="m79.73 66.554c0 0.3043 0.1022 0.5482 0.3848 0.6666 0.4048 0.1696 0.9169-0.0564 0.9169-0.6666 0-0.3229-0.3232-0.6008-0.6509-0.6008s-0.6508 0.2779-0.6508 0.6008z"/>
    <path d="m51.894 72.612c0 0.5748 0.753 0.8464 1.1462 0.4203 0.3822-0.4141 0.0991-1.0963-0.4954-1.0963-0.3831 0-0.6508 0.2916-0.6508 0.676z"/>
    <path d="m61.732 60.67c0 0.2117 0.0012 0.3512 0.1684 0.5326 0.321 0.3482 1.1333 0.2755 1.1333-0.5075 0-0.177-0.0946-0.3154-0.1863-0.4144-0.3652-0.3947-1.1154-0.1174-1.1154 0.3893z"/>
    <path d="m59.729 62.698c0 0.6149 0.7076 0.8853 1.1212 0.4954 0.4338-0.4089 0.1092-1.1212-0.3952-1.1212-0.2905 0-0.5467 0.1005-0.6594 0.3669-0.0221 0.0524-0.0666 0.1999-0.0666 0.2589z"/>
    <path d="m32.244 82.375v0.1252c0 0.4552 0.672 0.8276 1.1209 0.37 0.2483-0.253 0.236-0.6146 0.0209-0.8861-0.3102-0.3919-1.1418-0.2399-1.1418 0.3909z"/>
    <path d="m54.422 77.168c0.2508 0 0.4041 0.0068 0.5928-0.1832 0.5771-0.5809-0.2796-1.5312-0.9365-0.9365-0.2255 0.2043-0.275 0.5797-0.0472 0.8848 0.0629 0.0843 0.2624 0.2349 0.3909 0.2349z"/>
    <path d="m54.522 53.586c0.3301 0 0.6509-0.2838 0.6509-0.6008v-0.1252c0-0.2796-0.2962-0.5758-0.5757-0.5758-0.2451 0-0.3819 1e-3 -0.5704 0.2056-0.3584 0.3888-0.1056 1.0962 0.4952 1.0962z"/>
    <path d="m55.849 68.631c0 0.3627 0.2708 0.676 0.6259 0.676 0.6602 0 0.8919-0.6929 0.52-1.096-0.3999-0.4335-1.1459-0.1405-1.1459 0.42z"/>
    <path d="m47.964 52.885c0 0.9793 1.3017 0.8282 1.3017 0.1252v-0.1753c0-0.2719-0.3006-0.5507-0.5757-0.5507-0.2108 0-0.372 0.0058-0.5457 0.1803-0.0756 0.0761-0.1803 0.2744-0.1803 0.4205z"/>
    <path d="m61.707 66.604c0 0.2483 0.0377 0.3527 0.1809 0.4948 0.2832 0.2813 0.6952 0.2696 0.9403 0.0257 0.3787-0.3767 0.1317-1.1213-0.3954-1.1213h-0.1501c-0.2917 0-0.5757 0.3074-0.5757 0.6008z"/>
    <path d="m57.802 52.86v0.1252c0 0.3228 0.3195 0.6008 0.6508 0.6008 0.8326 0 0.8993-1.2707 0.0149-1.31-0.355-0.0158-0.6657 0.2734-0.6657 0.584z"/>
    <path d="m59.754 56.815c0 0.3277 0.2779 0.6509 0.6008 0.6509 0.2321 0 0.3702-0.0166 0.5451-0.2059 0.5769-0.6246-0.3505-1.5011-0.9527-0.9027-0.1078 0.1072-0.1932 0.2566-0.1932 0.4577z"/>
    <path d="m69.742 60.62c0 0.4238 0.2884 0.701 0.6508 0.701 0.3168 0 0.6508-0.2691 0.6508-0.5759v-0.1501c0-0.325-0.3301-0.5991-0.6476-0.5916-0.3527 0.0083-0.654 0.2789-0.654 0.6166z"/>
    <path d="m50.517 65.377h0.1252c0.708 0 0.9233-1.3018-0.1252-1.3018-0.4965 0-0.7887 0.7065-0.4204 1.0965 0.0836 0.0886 0.2562 0.2053 0.4204 0.2053z"/>
    <path d="m40.104 54.838c0 0.7627 0.7697 0.8752 1.109 0.5334 0.3928-0.3958 0.1644-1.1342-0.4581-1.1342-0.3455 0-0.6509 0.2882-0.6509 0.6008z"/>
    <path d="m47.964 66.654c0 0.6798 0.7274 0.8777 1.0835 0.5329 0.6503-0.6298-0.242-1.5616-0.8779-0.9782-0.1002 0.092-0.2056 0.2636-0.2056 0.4453z"/>
    <path d="m71.669 58.618c0 0.2136 0.0088 0.3874 0.1934 0.5576 0.6246 0.5759 1.5852-0.3774 0.855-1.0053-0.0416-0.0356-0.0347-0.0341-0.0894-0.0609-0.4237-0.2078-0.959 0.0703-0.959 0.5086z"/>
    <path d="m47.964 82.375c0 0.7023 0.7201 0.8657 1.0949 0.5444 0.2161-0.1852 0.2068-0.369 0.2068-0.6195 0-0.2073-0.3133-0.5257-0.5257-0.5257h-0.2003c-0.2845 0-0.5757 0.315-0.5757 0.6008z"/>
    <path d="m40.104 78.47c0 0.2557 0.048 0.339 0.206 0.495 0.3809 0.3762 1.0957 0.1525 1.0957-0.495 0-0.572-0.7155-0.8546-1.1089-0.4582-0.1057 0.1063-0.1928 0.2555-0.1928 0.4582z"/>
    <path d="m67.664 76.492c0 0.1997 0.0217 0.3317 0.1678 0.4831 0.3583 0.3713 1.1339 0.237 1.1339-0.5082 0-0.6006-0.9327-0.8689-1.2445-0.2431-0.0364 0.0732-0.0572 0.166-0.0572 0.2682z"/>
    <path d="m57.802 80.398c0 0.2332 0.0163 0.3692 0.2058 0.5452 0.1147 0.1068 0.2814 0.172 0.4599 0.164 0.888-0.0395 0.8127-1.31-0.0149-1.31-0.3313 0-0.6508 0.278-0.6508 0.6008z"/>
    <path d="m40.104 76.467c0 0.9789 1.3017 0.9293 1.3017 0.0251 0-0.2042-0.0772-0.3173-0.177-0.4238-0.0235-0.025-0.0011-0.0041-0.038-0.0371l-0.1343-0.091c-0.4612-0.2385-0.9524 0.1238-0.9524 0.5268z"/>
    <path d="m47.964 68.606c0 0.4055 0.2755 0.701 0.5757 0.701 0.2117 0 0.3512-0.0012 0.5325-0.1684 0.2606-0.2402 0.2684-0.6969 0.0128-0.9528-0.3973-0.3979-1.121-0.0948-1.121 0.4202z"/>
    <path d="m40.104 56.84c0 0.2047 0.0444 0.3371 0.1863 0.4896 0.2219 0.2385 0.6513 0.266 0.9222-0.0069 0.4298-0.4328 0.0987-1.1261-0.4574-1.1273-0.3463-7e-4 -0.6511 0.277-0.6511 0.6446z"/>
    <path d="m50.542 83.076c0.6841 0 0.8719-0.7012 0.5409-1.0918-0.2354-0.2775-0.7197-0.3023-0.998 0.0088-0.3457 0.3865-0.0743 1.083 0.4571 1.083z"/>
    <path d="m53.871 82.3v0.2003c0 0.3239 0.2927 0.5758 0.7009 0.5758 0.3047 0 0.6008-0.2791 0.6008-0.701 0-0.2871-0.2887-0.6008-0.5757-0.6008h-0.2003c-0.2077 0-0.5257 0.318-0.5257 0.5257z"/>
    <path d="m61.707 62.698c0 0.7188 0.8992 0.9266 1.2354 0.3344 0.2103-0.3704-0.0554-0.9602-0.5096-0.9602h-0.1501c-0.3043 0-0.5757 0.3073-0.5757 0.6258z"/>
    <path d="m63.784 72.487c0 0.3921 0.2695 0.6759 0.5757 0.6759h0.1503c0.4313 0 0.8155-0.6259 0.4008-1.1018-0.234-0.2684-0.7039-0.2619-0.9462-0.0193-0.0987 0.0988-0.1806 0.2535-0.1806 0.4452z"/>
    <path d="m53.871 50.882v0.2003c0 0.2077 0.318 0.5257 0.5257 0.5257h0.2003c0.3067 0 0.5757-0.2907 0.5757-0.701 0-0.3046-0.279-0.6008-0.7009-0.6008-0.2972 0-0.6008 0.2818-0.6008 0.5758z"/>
    <path d="m47.964 50.907c0 0.4117 0.2738 0.701 0.5757 0.701 0.2576 0 0.3313 0.0184 0.5454-0.1806 0.3215-0.2988 0.276-1.1212-0.5203-1.1212-0.2906 0-0.6008 0.3102-0.6008 0.6008z"/>
    <path d="m57.826 76.467c0 0.2196 0.0261 0.3414 0.1566 0.4943 0.3304 0.3871 1.1451 0.2576 1.1451-0.4692 0-0.5967-0.763-0.8203-1.1153-0.4395-0.0917 0.0991-0.1864 0.2374-0.1864 0.4144z"/>
    <path d="m47.964 58.818c0 0.5816 0.6648 0.8783 1.0828 0.507 0.4433-0.3937 0.2024-1.158-0.457-1.158-0.3056 0-0.6258 0.2796-0.6258 0.651z"/>
    <path d="m53.846 60.721v0.1501c0 0.4729 0.6867 0.7982 1.0959 0.3951 0.4597-0.453 0.0816-1.1211-0.37-1.1211h-0.1502c-0.2843 0-0.5757 0.2953-0.5757 0.5759z"/>
    <path d="m32.244 50.882v0.0551c6e-4 0.2076 0.0105 0.3147 0.1681 0.4778 0.3978 0.4121 1.1336 0.1573 1.1336-0.4578 0-0.3785-0.2852-0.6509-0.7009-0.6509-0.2973 0-0.6008 0.2818-0.6008 0.5758z"/>
    <path d="m50.517 69.307c1.0485 0 0.8332-1.3018 0.1252-1.3018-1.0139 0-0.8318 1.3018-0.1252 1.3018z"/>
    <path d="m69.692 56.715v0.1251c0 0.4175 0.5866 0.843 1.0882 0.4374 0.2666-0.2157 0.3092-0.6921 0.0207-0.9705-0.3689-0.356-1.1089-0.1243-1.1089 0.408z"/>
    <path d="m50.567 43.747c0.6459 0 0.8718-0.7142 0.4949-1.0959-0.1521-0.154-0.2313-0.2059-0.4949-0.2059-0.3726 0-0.6294 0.2805-0.6347 0.6547-5e-3 0.3436 0.2563 0.6471 0.6347 0.6471z"/>
    <path d="m47.964 35.186c0 0.6504 0.6488 0.8803 1.0774 0.5517 0.4275-0.3276 0.2406-1.1525-0.3765-1.1525h-0.0096c-0.2016 6e-4 -0.3514 0.0208-0.511 0.1803-0.0705 0.0704-0.1803 0.2852-0.1803 0.4205z"/>
    <path d="m40.104 52.86c0 1.0063 1.3017 0.9174 1.3017 0.0501 0-0.6288-0.7361-0.7917-1.0829-0.4822-0.1035 0.0923-0.2188 0.2482-0.2188 0.4321z"/>
    <path d="m69.617 66.679v0.1252c0 0.2973 0.2689 0.5757 0.6758 0.5757 0.3682 0 0.6258-0.2972 0.6258-0.7009 0-0.2913-0.3071-0.6009-0.6007-0.6009-0.2152 0-0.3521 0.0113-0.5207 0.1803-0.0999 0.1001-0.1802 0.2271-0.1802 0.4206z"/>
    <path d="m67.664 72.562c0 0.2142 0.0458 0.3495 0.1684 0.4825 0.3172 0.3441 1.1333 0.2712 1.1333-0.5076 0-0.4917-0.6632-0.8314-1.1196-0.4187-0.1004 0.0908-0.1821 0.2583-0.1821 0.4438z"/>
    <path d="m47.964 80.398c0 0.4073 0.223 0.6908 0.636 0.7092 0.1664 0.0073 0.3357-0.0524 0.4469-0.1519 0.4443-0.3974 0.1943-1.1581-0.4321-1.1581-0.33 0-0.6508 0.2838-0.6508 0.6008z"/>
    <path d="m68.29 79.146c0.2839 0 0.5176-0.1526 0.6091-0.3672 0.2358-0.5532-0.2224-0.9346-0.534-0.9346-0.2323 0-0.3701 0.0165-0.5451 0.2059-0.3635 0.3932-0.1089 1.0959 0.47 1.0959z"/>
    <path d="m50.567 61.447c0.6101 0 0.8924-0.7015 0.4947-1.0955-0.1844-0.1826-0.2484-0.2063-0.5449-0.2063-0.5837 0-0.8543 0.9276-0.218 1.2445 0.0732 0.0365 0.1659 0.0573 0.2682 0.0573z"/>
    <path d="m53.871 90.211c0 0.2135 0.0088 0.3874 0.1934 0.5576 0.3463 0.3192 1.1083 0.2142 1.1083-0.5327 0-0.4765-0.6754-0.8316-1.1083-0.4324-0.0845 0.078-0.1934 0.2533-0.1934 0.4075z"/>
    <path d="m53.871 43.021c0 0.2135 0.0088 0.3874 0.1934 0.5577 0.3668 0.3381 1.1083 0.18 1.1083-0.5327 0-0.505-0.6905-0.8177-1.1083-0.4324-0.0845 0.078-0.1934 0.2533-0.1934 0.4074z"/>
    <path d="m57.802 50.907c0 0.2049 0.0123 0.3383 0.1683 0.5075 0.3435 0.3727 1.1334 0.2326 1.1334-0.4825 0-0.2068-0.0752-0.3121-0.1808-0.42-0.4419-0.4517-1.1209-0.098-1.1209 0.395z"/>
    <path d="m47.964 60.746c0 0.6489 0.6453 0.8948 1.0918 0.5412 0.3625-0.287 0.3096-1.142-0.466-1.142-0.3852 0-0.6258 0.3355-0.6258 0.6008z"/>
    <path d="m47.964 90.236c0 0.756 0.778 0.8396 1.0962 0.5456 0.3965-0.3666 0.24-1.1464-0.4704-1.1464-0.3649 0-0.6258 0.3445-0.6258 0.6008z"/>
    <path d="m40.104 82.4c0 0.2945 0.1248 0.4911 0.3663 0.6101 0.437 0.2154 0.9354-0.1151 0.9354-0.5601 0-0.4036-0.2757-0.6759-0.5757-0.6759-0.2264 0-0.3696 0.0053-0.5583 0.1927-0.0962 0.0955-0.1677 0.2504-0.1677 0.4332z"/>
    <path d="m50.517 73.238c1.0109 0 0.9096-1.3018 0.0502-1.3018-0.5708 0-0.8245 0.6992-0.4822 1.083 0.0923 0.1036 0.2482 0.2188 0.432 0.2188z"/>
    <path d="m61.732 82.4c0 0.8641 1.3017 0.961 1.3017-0.0501 0-0.2795-0.2962-0.5758-0.5757-0.5758-0.2324 0-0.3999 0.0082-0.5693 0.2068-0.0883 0.1033-0.1567 0.2357-0.1567 0.4191z"/>
    <path d="m47.964 64.676c0 0.7073 0.7387 0.8743 1.1082 0.5326 0.359-0.3317 0.2549-1.1334-0.4824-1.1334-0.3478 0-0.6258 0.3301-0.6258 0.6008z"/>
    <path d="m57.826 72.537c0 0.959 1.3017 0.9294 1.3017 0 0-0.4753-0.6224-0.8339-1.106-0.43-0.0923 0.077-0.1957 0.268-0.1957 0.43z"/>
    <path d="m40.104 50.907c0 0.2125 0.0302 0.3718 0.1677 0.5082 0.3717 0.369 1.134 0.2264 1.134-0.4832 0-0.4448-0.4987-0.7753-0.9354-0.56l-0.176 0.1244c-0.0981 0.1062-0.1903 0.2193-0.1903 0.4106z"/>
    <path d="m63.784 76.392c0 0.9588 1.3017 0.9292 1.3017 0 0-0.3362-0.2864-0.6009-0.7009-0.6009-0.3062 0-0.6008 0.2947-0.6008 0.6009z"/>
   </g>
   <path d="m74.542 66.305v0.6559c-0.1628 4.0999-3.3766 7.5259-7.5711 7.7926-0.0659 0.0042-0.1315 0.0075-0.197 0.01h-0.6559c-4.0999-0.1627-7.5259-3.3762-7.7926-7.5707-0.0042-0.0659-0.0074-0.1315-0.01-0.1967v-0.6707c0.1647-4.1187 3.3756-7.492 7.5824-7.7665 4.4719-0.2919 8.349 3.0682 8.6342 7.5491 0.0042 0.0659 0.0074 0.1315 0.01 0.197z" fill="#fff"/>
   <path d="m59.056 67.007c-0.2202-4.0361 2.9371-7.5306 6.9729-7.7173 4.066-0.1881 7.5292 2.906 7.7186 6.9834 0.189 4.0645-2.9182 7.5168-6.9867 7.708-4.0698 0.1913-7.4832-2.9119-7.7048-6.9741zm6.8384-8.0495c-4.2545 0.2987-7.4501 3.9248-7.1723 8.192 0.2751 4.2288 3.9503 7.4447 8.1808 7.1669 4.2391-0.2785 7.4652-3.9395 7.1808-8.1865-0.2833-4.2339-3.9428-7.4705-8.1893-7.1724z" fill="#000200"/>
   <path d="m62.121 65.448c0.031 0.1182 0.8787 1.2297 1.0259 1.2846 0.0484-0.0911 0.0572-0.2458 0.0568-0.3569l-0.8238-0.9813c-0.091 0.0035-0.1892 0.0113-0.2589 0.0536zm5.6693 2.7768c-0.2357 0.052-0.7799 0.0569-1.0334 0.0456-0.0077-0.1334-0.0096-0.6184 0.0243-0.7247l1.2181-0.125c0.0048 0.1961-0.1231 0.6249-0.209 0.8041zm-2.7759-0.7986c0.114-0.0103 1.2478 0.1964 1.3709 0.2432l-0.0042 0.5987c-0.0927 0.0055-1.2301-0.1782-1.3131-0.2131zm-1.0569-0.3872c0.083 0.0152 0.6939 0.1915 0.7437 0.23 0.0129 0.1443 0.0219 0.2871 0.0342 0.4324 0.0107 0.1279 0.0552 0.2612 0.0656 0.3762-0.0827 0.0161-0.2755-0.043-0.3585-0.0714-0.1292-0.0439-0.2425-0.0536-0.2945-0.1824-0.0966-0.239-0.1883-0.5219-0.1905-0.7848zm1.1418-0.7207c0.1864-0.0029 0.4318 0.0778 0.6259 0.0981 0.1408 0.0152 0.527 0.0533 0.6219 0.1211l0.0143 0.6969c-0.1266-0.0013-0.24-0.0413-0.3585-0.062-0.2202-0.0384-0.8906-0.1292-1.0095-0.2092zm1.6741 0.7692c-0.0517-0.0814-0.0152-0.394-0.0158-0.5141-0.0013-0.2077-0.0359-0.1408 0.3375-0.176 0.1688-0.0158 0.3629-0.0091 0.537-0.0191 0.156-9e-3 0.3161-0.052 0.4728-0.0403 0.0058 0.1253-0.0084 0.5703-0.0482 0.6697-0.2053 0.1063-1.0892 0.1857-1.2833 0.0798zm-2.8156-0.413c-0.0527-0.1683 0.042-0.5238 0.0949-0.6898 0.0423 0.0019 0.6708 0.1853 0.7011 0.2015l-0.0652 0.714c-0.1027 0.0559-0.6788-0.1899-0.7308-0.2257zm1.2998-0.7383c-0.0388-0.0959 0.0013-0.3371 0.0558-0.4304l0.8268 0.091c0.1982 0.0255 0.3707-0.0946 0.2828 0.5129zm-1.045-0.2544c-0.0326-0.124 0.1669-0.4034 0.2596-0.5064l0.4741 0.186-0.1189 0.4906c-0.1162 0.0171-0.5199-0.1037-0.6148-0.1702zm0.4918-0.7764c0.1043-0.1201 0.4918-0.4595 0.6442-0.4685-0.0113 0.0607-0.1114 0.2221-0.1466 0.2925-0.0513 0.1024-0.0849 0.2141-0.1291 0.3026-0.1079 0.0246-0.2884-0.0436-0.3685-0.1266zm-0.1986 3.5574-0.0572-0.1214c0.0918-0.0048 0.1815 0.0294 0.2636 0.0501 0.297 0.0743 0.1004 0.1595 0.4495 0.1333 0.1014-0.0074 0.0846-0.03 0.217-0.019 0.154 0.0129 0.298 0.041 0.4543 0.0442 0.7547 0.0152 1.6689 0.0414 2.4088-0.0675 0.1447-0.0213 0.2813-0.0665 0.4082-0.0826 0.0474 0.0801-2e-3 0.093 0.339 0.0468 0.1199-0.0161 0.238-0.0313 0.3601-0.0475 0.144-0.2186 0.2861-0.4001 0.1922-0.549-0.0627-0.0991-0.2558-0.4462-0.3504-0.4789-0.0717 0.146-0.1321 0.5661-0.2932 0.6398-0.095 0.0432-0.6569 0.175-0.7525 0.1711l0.1847-0.8664 0.6969-0.1618c-0.0177-0.0823-0.1256-0.2176-0.1821-0.2596l-0.487 0.0927c-0.0675-0.633 0.2048-0.4844-0.2922-1.0011l-1.2653 0.1088c-0.0336-0.1163-0.0575-0.3572-0.0491-0.4715 0.1344-0.0726 0.6527-0.071 0.7919-0.1537-0.0359-0.0853-0.1425-0.1595-0.2132-0.2228-0.1375-0.0081-0.4808 0.0594-0.5693 9e-3 -0.0481-0.1149-0.0084-0.4159-0.0213-0.5654-0.0694-0.0598-0.2244-0.2145-0.2981-0.238l-0.0048 0.8189c-0.2154 0.0336-0.8487-0.0432-1.0453-0.1175-0.044-0.1399 0.4033-0.9007 0.5163-0.9523 0.0223-0.0101 0.0465-0.0107 0.0762-0.0249l0.0772-0.0614c-0.6249-0.3497-0.5218-0.7434-1.344-0.0665-0.404 0.3326-0.7405 0.7541-0.9433 1.2488-0.4334 1.0576-0.3087 2.0884 0.2851 3.0294 0.0604 0.0962 0.0414 0.1072 0.1586 0.1279 0.0991 0.0174 0.1925 0.0235 0.2887 8e-3zm2.2557 0.9533-2e-3 -0.1931 0.5484-0.0122c-0.0152 0.1449-0.0911 0.1443-0.2086 0.1714-0.0872 0.02-0.2529 0.0433-0.3378 0.0339zm-1.107-0.1818 0.7627 0.0058 0.0123 0.1747c-0.1521 0.0172-0.6988-0.0687-0.775-0.1805zm3.0384-4.0786c0.094 0.0898 0.2716 0.3669 0.2865 0.4938-0.0827 0.03-0.1563 0.0626-0.2442 0.0587-0.0759-0.0697-0.3303-0.3342-0.3497-0.4194zm3.2958 2.6997c-0.206 0.1282-1.1548 0.4544-1.3892 0.457-0.1356-0.1819-0.269-0.4615-0.404-0.6611-0.3714-0.5493-0.3139-0.3988-0.2909-0.7301 0.0403-0.5781 0.0251-0.8668-0.1505-1.4035-0.0404-0.1243-0.1234-0.2932-0.1424-0.4075 0.2189 0.0068 1.0023 0.1566 1.261 0.2102 0.651 0.1353 1.552 0.4053 1.9947 0.9133 0.1815 0.2086 0.2849 0.5518 0.1457 0.8238-0.1931 0.3765-0.134 0.1059-0.4641 0.1165-0.4227 0.0136-0.549 0.3175-0.5603 0.6814zm-3.5302-2.949c-0.0685 0.0546-0.166 0.0917-0.2639 0.0966-0.0507-0.0617-0.143-0.3501-0.1498-0.4408 0.1049 0.0239 0.383 0.2515 0.4137 0.3442zm-0.7499-0.2913c-0.0817-0.0313-0.4363-0.3452-0.4598-0.4159 0.0713 0.0013 0.2699 0.0588 0.3219 0.0975 0.053 0.0397 0.126 0.2503 0.1379 0.3184zm-5.6471 0.292c-0.1763-0.425-0.5622-0.9081-0.7863-1.6773-0.2038-0.7011-0.103-1.4839 0.7902-1.4762 0.5293 0.0046 1.3479 0.3801 1.8097 0.6472 1.5016 0.868 2.9177 2.0309 4.1209 3.2894 0.4053 0.424 0.7964 0.8506 1.161 1.3085 0.1663 0.2089 0.9701 1.251 1.0014 1.4296-0.3078 0.093-1.2107 0.2193-1.5546 0.2538-2.3933 0.24-5.7827 0.1211-7.9599-0.8871-0.3181-0.1472-0.8681-0.5222-0.922-0.8955-0.0833-0.5777 0.4986-1.0669 0.6946-1.0999 0.1847 0.2067 0.3992 0.3078 0.6914 0.1906 0.2987-0.1202 0.3278-0.3407 0.352-0.6272 0.3969-0.1346 0.8671-0.2086 1.2824-0.2741 0.1327-0.021 0.9555-0.0856 1.0227-0.1499 0.042-0.04 0.1259-0.1643 0.1337-0.2209-0.2593-0.0138-1.0905 0.0759-1.3925 0.1299-0.1208 0.0216-0.3271 0.0594-0.4447 0.0591zm-0.2938 0.0859c-0.093 0.0129-0.3927 0.102-0.4537 0.0817-0.1344-0.0449-0.1486-0.1764-0.4192-0.1793-0.3969-0.0042-0.5532 0.2532-0.5787 0.6107-0.0368 0.05-0.2267 0.1666-0.2929 0.2196-0.3187 0.2548-0.5409 0.6291-0.5445 1.044-0.0129 1.4193 3.0821 2.1281 4.1071 2.2686 0.2199 0.0304 1.282 0.1224 1.387 0.1941 0.6623 0.4534 1.3514 0.548 2.1371 0.4931 0.5429-0.0381 1.0899-0.2945 1.5294-0.6058 0.1382-0.0975 0.673-0.1518 0.8716-0.1893 0.1453-0.0274 0.7731-0.1873 0.8561-0.1721 0.1421 0.1864 0.3145 0.6007 0.4133 0.8229 0.4321 0.97 0.6614 2.3473-0.9368 1.9921-0.8803-0.1957-1.7448-0.715-2.4959-1.2071-0.457-0.299-0.2971-0.3446-0.9104-0.3245 0.0617 0.165 1.4106 0.9371 1.6447 1.0659 0.5396 0.2965 1.3341 0.6537 1.9389 0.7628 0.9249 0.1673 1.5278-0.154 1.419-1.1726-0.1179-1.1034-0.642-1.8668-0.6627-2.0654 0.2377-0.1147 0.674-0.206 1.2162-0.4708 0.1979-0.0969 0.2725 0.1905 0.6426 0.1517 0.3765-0.0394 0.5851-0.4485 0.4734-0.743-0.073-0.1935-0.0487-0.1392 0.0559-0.2952 0.1327-0.197 0.1834-0.4618 0.1317-0.6933-0.2409-1.0799-2.5531-1.5698-3.4359-1.6754-0.6882-0.082-0.2342-0.0274-0.9675-0.7204-0.6756-0.6388-1.6386-0.9278-2.5531-0.8235-0.1809 0.0206-0.3801-0.1983-0.5264-0.301-0.1692-0.1188-0.3397-0.2422-0.5135-0.3542-0.599-0.3859-1.5775-0.9743-2.2576-1.1458-0.5012-0.1259-0.9407-0.2822-1.468-0.1166-0.4302 0.1353-0.643 0.62-0.6685 1.0369-0.0675 1.0932 0.8409 2.3432 0.8613 2.5112zm8.5153-3.0498c-0.93 0.2193-0.6223 1.5368 0.279 1.3647 0.364-0.0694 0.622-0.4482 0.5458-0.8212-0.0746-0.3665-0.4486-0.6323-0.8248-0.5435zm-7.3573 8.153c-0.702 0.219-0.3623 1.3221 0.3762 1.0776 0.6895-0.2283 0.3575-1.3062-0.3762-1.0776z" fill="#6e6f70"/>
  </g>
 </g>
</svg>
